G04 #@! TF.GenerationSoftware,KiCad,Pcbnew,(5.1.5-0-10_14)*
G04 #@! TF.CreationDate,2020-01-27T17:12:38-08:00*
G04 #@! TF.ProjectId,Numpad,4e756d70-6164-42e6-9b69-6361645f7063,rev?*
G04 #@! TF.SameCoordinates,Original*
G04 #@! TF.FileFunction,Legend,Top*
G04 #@! TF.FilePolarity,Positive*
%FSLAX46Y46*%
G04 Gerber Fmt 4.6, Leading zero omitted, Abs format (unit mm)*
G04 Created by KiCad (PCBNEW (5.1.5-0-10_14)) date 2020-01-27 17:12:38*
%MOMM*%
%LPD*%
G04 APERTURE LIST*
%ADD10C,0.150000*%
%ADD11C,0.120000*%
%ADD12C,0.200000*%
G04 APERTURE END LIST*
D10*
X62803690Y-41239761D02*
X62803690Y-39239761D01*
X63946547Y-41239761D01*
X63946547Y-39239761D01*
X65756071Y-39906428D02*
X65756071Y-41239761D01*
X64898928Y-39906428D02*
X64898928Y-40954047D01*
X64994166Y-41144523D01*
X65184642Y-41239761D01*
X65470357Y-41239761D01*
X65660833Y-41144523D01*
X65756071Y-41049285D01*
X66708452Y-41239761D02*
X66708452Y-39906428D01*
X66708452Y-40096904D02*
X66803690Y-40001666D01*
X66994166Y-39906428D01*
X67279880Y-39906428D01*
X67470357Y-40001666D01*
X67565595Y-40192142D01*
X67565595Y-41239761D01*
X67565595Y-40192142D02*
X67660833Y-40001666D01*
X67851309Y-39906428D01*
X68137023Y-39906428D01*
X68327500Y-40001666D01*
X68422738Y-40192142D01*
X68422738Y-41239761D01*
X69375119Y-39906428D02*
X69375119Y-41906428D01*
X69375119Y-40001666D02*
X69565595Y-39906428D01*
X69946547Y-39906428D01*
X70137023Y-40001666D01*
X70232261Y-40096904D01*
X70327500Y-40287380D01*
X70327500Y-40858809D01*
X70232261Y-41049285D01*
X70137023Y-41144523D01*
X69946547Y-41239761D01*
X69565595Y-41239761D01*
X69375119Y-41144523D01*
X72041785Y-41239761D02*
X72041785Y-40192142D01*
X71946547Y-40001666D01*
X71756071Y-39906428D01*
X71375119Y-39906428D01*
X71184642Y-40001666D01*
X72041785Y-41144523D02*
X71851309Y-41239761D01*
X71375119Y-41239761D01*
X71184642Y-41144523D01*
X71089404Y-40954047D01*
X71089404Y-40763571D01*
X71184642Y-40573095D01*
X71375119Y-40477857D01*
X71851309Y-40477857D01*
X72041785Y-40382619D01*
X73851309Y-41239761D02*
X73851309Y-39239761D01*
X73851309Y-41144523D02*
X73660833Y-41239761D01*
X73279880Y-41239761D01*
X73089404Y-41144523D01*
X72994166Y-41049285D01*
X72898928Y-40858809D01*
X72898928Y-40287380D01*
X72994166Y-40096904D01*
X73089404Y-40001666D01*
X73279880Y-39906428D01*
X73660833Y-39906428D01*
X73851309Y-40001666D01*
X74708452Y-40668333D02*
X75660833Y-40668333D01*
X74517976Y-41239761D02*
X75184642Y-39239761D01*
X75851309Y-41239761D01*
X77851309Y-39906428D02*
X78327500Y-41239761D01*
X78803690Y-39906428D01*
X79946547Y-39239761D02*
X80137023Y-39239761D01*
X80327500Y-39335000D01*
X80422738Y-39430238D01*
X80517976Y-39620714D01*
X80613214Y-40001666D01*
X80613214Y-40477857D01*
X80517976Y-40858809D01*
X80422738Y-41049285D01*
X80327500Y-41144523D01*
X80137023Y-41239761D01*
X79946547Y-41239761D01*
X79756071Y-41144523D01*
X79660833Y-41049285D01*
X79565595Y-40858809D01*
X79470357Y-40477857D01*
X79470357Y-40001666D01*
X79565595Y-39620714D01*
X79660833Y-39430238D01*
X79756071Y-39335000D01*
X79946547Y-39239761D01*
X81470357Y-41049285D02*
X81565595Y-41144523D01*
X81470357Y-41239761D01*
X81375119Y-41144523D01*
X81470357Y-41049285D01*
X81470357Y-41239761D01*
X82327500Y-39430238D02*
X82422738Y-39335000D01*
X82613214Y-39239761D01*
X83089404Y-39239761D01*
X83279880Y-39335000D01*
X83375119Y-39430238D01*
X83470357Y-39620714D01*
X83470357Y-39811190D01*
X83375119Y-40096904D01*
X82232261Y-41239761D01*
X83470357Y-41239761D01*
X85756071Y-41144523D02*
X86041785Y-41239761D01*
X86517976Y-41239761D01*
X86708452Y-41144523D01*
X86803690Y-41049285D01*
X86898928Y-40858809D01*
X86898928Y-40668333D01*
X86803690Y-40477857D01*
X86708452Y-40382619D01*
X86517976Y-40287380D01*
X86137023Y-40192142D01*
X85946547Y-40096904D01*
X85851309Y-40001666D01*
X85756071Y-39811190D01*
X85756071Y-39620714D01*
X85851309Y-39430238D01*
X85946547Y-39335000D01*
X86137023Y-39239761D01*
X86613214Y-39239761D01*
X86898928Y-39335000D01*
X87470357Y-39906428D02*
X88232261Y-39906428D01*
X87756071Y-39239761D02*
X87756071Y-40954047D01*
X87851309Y-41144523D01*
X88041785Y-41239761D01*
X88232261Y-41239761D01*
X89756071Y-41239761D02*
X89756071Y-40192142D01*
X89660833Y-40001666D01*
X89470357Y-39906428D01*
X89089404Y-39906428D01*
X88898928Y-40001666D01*
X89756071Y-41144523D02*
X89565595Y-41239761D01*
X89089404Y-41239761D01*
X88898928Y-41144523D01*
X88803690Y-40954047D01*
X88803690Y-40763571D01*
X88898928Y-40573095D01*
X89089404Y-40477857D01*
X89565595Y-40477857D01*
X89756071Y-40382619D01*
X90708452Y-39906428D02*
X90708452Y-41239761D01*
X90708452Y-40096904D02*
X90803690Y-40001666D01*
X90994166Y-39906428D01*
X91279880Y-39906428D01*
X91470357Y-40001666D01*
X91565595Y-40192142D01*
X91565595Y-41239761D01*
X93375119Y-41239761D02*
X93375119Y-39239761D01*
X93375119Y-41144523D02*
X93184642Y-41239761D01*
X92803690Y-41239761D01*
X92613214Y-41144523D01*
X92517976Y-41049285D01*
X92422738Y-40858809D01*
X92422738Y-40287380D01*
X92517976Y-40096904D01*
X92613214Y-40001666D01*
X92803690Y-39906428D01*
X93184642Y-39906428D01*
X93375119Y-40001666D01*
X95184642Y-41239761D02*
X95184642Y-40192142D01*
X95089404Y-40001666D01*
X94898928Y-39906428D01*
X94517976Y-39906428D01*
X94327500Y-40001666D01*
X95184642Y-41144523D02*
X94994166Y-41239761D01*
X94517976Y-41239761D01*
X94327500Y-41144523D01*
X94232261Y-40954047D01*
X94232261Y-40763571D01*
X94327500Y-40573095D01*
X94517976Y-40477857D01*
X94994166Y-40477857D01*
X95184642Y-40382619D01*
X96422738Y-41239761D02*
X96232261Y-41144523D01*
X96137023Y-40954047D01*
X96137023Y-39239761D01*
X97470357Y-41239761D02*
X97279880Y-41144523D01*
X97184642Y-41049285D01*
X97089404Y-40858809D01*
X97089404Y-40287380D01*
X97184642Y-40096904D01*
X97279880Y-40001666D01*
X97470357Y-39906428D01*
X97756071Y-39906428D01*
X97946547Y-40001666D01*
X98041785Y-40096904D01*
X98137023Y-40287380D01*
X98137023Y-40858809D01*
X98041785Y-41049285D01*
X97946547Y-41144523D01*
X97756071Y-41239761D01*
X97470357Y-41239761D01*
X98994166Y-39906428D02*
X98994166Y-41239761D01*
X98994166Y-40096904D02*
X99089404Y-40001666D01*
X99279880Y-39906428D01*
X99565595Y-39906428D01*
X99756071Y-40001666D01*
X99851309Y-40192142D01*
X99851309Y-41239761D01*
X101565595Y-41144523D02*
X101375119Y-41239761D01*
X100994166Y-41239761D01*
X100803690Y-41144523D01*
X100708452Y-40954047D01*
X100708452Y-40192142D01*
X100803690Y-40001666D01*
X100994166Y-39906428D01*
X101375119Y-39906428D01*
X101565595Y-40001666D01*
X101660833Y-40192142D01*
X101660833Y-40382619D01*
X100708452Y-40573095D01*
X62803690Y-44389761D02*
X62803690Y-42389761D01*
X62803690Y-43151666D02*
X62994166Y-43056428D01*
X63375119Y-43056428D01*
X63565595Y-43151666D01*
X63660833Y-43246904D01*
X63756071Y-43437380D01*
X63756071Y-44008809D01*
X63660833Y-44199285D01*
X63565595Y-44294523D01*
X63375119Y-44389761D01*
X62994166Y-44389761D01*
X62803690Y-44294523D01*
X64422738Y-43056428D02*
X64898928Y-44389761D01*
X65375119Y-43056428D02*
X64898928Y-44389761D01*
X64708452Y-44865952D01*
X64613214Y-44961190D01*
X64422738Y-45056428D01*
X67660833Y-44389761D02*
X67660833Y-42389761D01*
X68613214Y-43056428D02*
X68613214Y-44389761D01*
X68613214Y-43246904D02*
X68708452Y-43151666D01*
X68898928Y-43056428D01*
X69184642Y-43056428D01*
X69375119Y-43151666D01*
X69470357Y-43342142D01*
X69470357Y-44389761D01*
X71184642Y-44294523D02*
X70994166Y-44389761D01*
X70613214Y-44389761D01*
X70422738Y-44294523D01*
X70327500Y-44104047D01*
X70327500Y-43342142D01*
X70422738Y-43151666D01*
X70613214Y-43056428D01*
X70994166Y-43056428D01*
X71184642Y-43151666D01*
X71279880Y-43342142D01*
X71279880Y-43532619D01*
X70327500Y-43723095D01*
X71946547Y-44389761D02*
X72994166Y-43056428D01*
X71946547Y-43056428D02*
X72994166Y-44389761D01*
X73756071Y-43056428D02*
X73756071Y-45056428D01*
X73756071Y-43151666D02*
X73946547Y-43056428D01*
X74327500Y-43056428D01*
X74517976Y-43151666D01*
X74613214Y-43246904D01*
X74708452Y-43437380D01*
X74708452Y-44008809D01*
X74613214Y-44199285D01*
X74517976Y-44294523D01*
X74327500Y-44389761D01*
X73946547Y-44389761D01*
X73756071Y-44294523D01*
X76327500Y-44294523D02*
X76137023Y-44389761D01*
X75756071Y-44389761D01*
X75565595Y-44294523D01*
X75470357Y-44104047D01*
X75470357Y-43342142D01*
X75565595Y-43151666D01*
X75756071Y-43056428D01*
X76137023Y-43056428D01*
X76327500Y-43151666D01*
X76422738Y-43342142D01*
X76422738Y-43532619D01*
X75470357Y-43723095D01*
X77279880Y-43056428D02*
X77279880Y-44389761D01*
X77279880Y-43246904D02*
X77375119Y-43151666D01*
X77565595Y-43056428D01*
X77851309Y-43056428D01*
X78041785Y-43151666D01*
X78137023Y-43342142D01*
X78137023Y-44389761D01*
X78994166Y-44294523D02*
X79184642Y-44389761D01*
X79565595Y-44389761D01*
X79756071Y-44294523D01*
X79851309Y-44104047D01*
X79851309Y-44008809D01*
X79756071Y-43818333D01*
X79565595Y-43723095D01*
X79279880Y-43723095D01*
X79089404Y-43627857D01*
X78994166Y-43437380D01*
X78994166Y-43342142D01*
X79089404Y-43151666D01*
X79279880Y-43056428D01*
X79565595Y-43056428D01*
X79756071Y-43151666D01*
X80708452Y-44389761D02*
X80708452Y-43056428D01*
X80708452Y-42389761D02*
X80613214Y-42485000D01*
X80708452Y-42580238D01*
X80803690Y-42485000D01*
X80708452Y-42389761D01*
X80708452Y-42580238D01*
X81470357Y-43056428D02*
X81946547Y-44389761D01*
X82422738Y-43056428D01*
X83946547Y-44294523D02*
X83756071Y-44389761D01*
X83375119Y-44389761D01*
X83184642Y-44294523D01*
X83089404Y-44104047D01*
X83089404Y-43342142D01*
X83184642Y-43151666D01*
X83375119Y-43056428D01*
X83756071Y-43056428D01*
X83946547Y-43151666D01*
X84041785Y-43342142D01*
X84041785Y-43532619D01*
X83089404Y-43723095D01*
X87565595Y-44199285D02*
X87470357Y-44294523D01*
X87184642Y-44389761D01*
X86994166Y-44389761D01*
X86708452Y-44294523D01*
X86517976Y-44104047D01*
X86422738Y-43913571D01*
X86327500Y-43532619D01*
X86327500Y-43246904D01*
X86422738Y-42865952D01*
X86517976Y-42675476D01*
X86708452Y-42485000D01*
X86994166Y-42389761D01*
X87184642Y-42389761D01*
X87470357Y-42485000D01*
X87565595Y-42580238D01*
X88708452Y-44389761D02*
X88517976Y-44294523D01*
X88422738Y-44199285D01*
X88327500Y-44008809D01*
X88327500Y-43437380D01*
X88422738Y-43246904D01*
X88517976Y-43151666D01*
X88708452Y-43056428D01*
X88994166Y-43056428D01*
X89184642Y-43151666D01*
X89279880Y-43246904D01*
X89375119Y-43437380D01*
X89375119Y-44008809D01*
X89279880Y-44199285D01*
X89184642Y-44294523D01*
X88994166Y-44389761D01*
X88708452Y-44389761D01*
X90232261Y-44389761D02*
X90232261Y-43056428D01*
X90232261Y-43246904D02*
X90327500Y-43151666D01*
X90517976Y-43056428D01*
X90803690Y-43056428D01*
X90994166Y-43151666D01*
X91089404Y-43342142D01*
X91089404Y-44389761D01*
X91089404Y-43342142D02*
X91184642Y-43151666D01*
X91375119Y-43056428D01*
X91660833Y-43056428D01*
X91851309Y-43151666D01*
X91946547Y-43342142D01*
X91946547Y-44389761D01*
X92898928Y-43056428D02*
X92898928Y-45056428D01*
X92898928Y-43151666D02*
X93089404Y-43056428D01*
X93470357Y-43056428D01*
X93660833Y-43151666D01*
X93756071Y-43246904D01*
X93851309Y-43437380D01*
X93851309Y-44008809D01*
X93756071Y-44199285D01*
X93660833Y-44294523D01*
X93470357Y-44389761D01*
X93089404Y-44389761D01*
X92898928Y-44294523D01*
X95565595Y-43056428D02*
X95565595Y-44389761D01*
X94708452Y-43056428D02*
X94708452Y-44104047D01*
X94803690Y-44294523D01*
X94994166Y-44389761D01*
X95279880Y-44389761D01*
X95470357Y-44294523D01*
X95565595Y-44199285D01*
X96232261Y-43056428D02*
X96994166Y-43056428D01*
X96517976Y-42389761D02*
X96517976Y-44104047D01*
X96613214Y-44294523D01*
X96803690Y-44389761D01*
X96994166Y-44389761D01*
X98422738Y-44294523D02*
X98232261Y-44389761D01*
X97851309Y-44389761D01*
X97660833Y-44294523D01*
X97565595Y-44104047D01*
X97565595Y-43342142D01*
X97660833Y-43151666D01*
X97851309Y-43056428D01*
X98232261Y-43056428D01*
X98422738Y-43151666D01*
X98517976Y-43342142D01*
X98517976Y-43532619D01*
X97565595Y-43723095D01*
X99375119Y-44389761D02*
X99375119Y-43056428D01*
X99375119Y-43437380D02*
X99470357Y-43246904D01*
X99565595Y-43151666D01*
X99756071Y-43056428D01*
X99946547Y-43056428D01*
X100517976Y-44294523D02*
X100708452Y-44389761D01*
X101089404Y-44389761D01*
X101279880Y-44294523D01*
X101375119Y-44104047D01*
X101375119Y-44008809D01*
X101279880Y-43818333D01*
X101089404Y-43723095D01*
X100803690Y-43723095D01*
X100613214Y-43627857D01*
X100517976Y-43437380D01*
X100517976Y-43342142D01*
X100613214Y-43151666D01*
X100803690Y-43056428D01*
X101089404Y-43056428D01*
X101279880Y-43151666D01*
D11*
X27940000Y-66040000D02*
X27940000Y-52070000D01*
X41910000Y-66040000D02*
X27940000Y-66040000D01*
X41910000Y-52070000D02*
X41910000Y-66040000D01*
X27940000Y-52070000D02*
X41910000Y-52070000D01*
X27940000Y-91440000D02*
X27940000Y-77470000D01*
X41910000Y-91440000D02*
X27940000Y-91440000D01*
X41910000Y-77470000D02*
X41910000Y-91440000D01*
X27940000Y-77470000D02*
X41910000Y-77470000D01*
X27940000Y-110490000D02*
X27940000Y-96520000D01*
X41910000Y-110490000D02*
X27940000Y-110490000D01*
X41910000Y-96520000D02*
X41910000Y-110490000D01*
X27940000Y-96520000D02*
X41910000Y-96520000D01*
X27940000Y-115570000D02*
X41910000Y-115570000D01*
X41910000Y-115570000D02*
X41910000Y-129540000D01*
X41910000Y-129540000D02*
X27940000Y-129540000D01*
X27940000Y-129540000D02*
X27940000Y-115570000D01*
X27940000Y-148590000D02*
X27940000Y-134620000D01*
X41910000Y-148590000D02*
X27940000Y-148590000D01*
X41910000Y-134620000D02*
X41910000Y-148590000D01*
X27940000Y-134620000D02*
X41910000Y-134620000D01*
X37465000Y-167640000D02*
X37465000Y-153670000D01*
X51435000Y-167640000D02*
X37465000Y-167640000D01*
X51435000Y-153670000D02*
X51435000Y-167640000D01*
X37465000Y-153670000D02*
X51435000Y-153670000D01*
X46990000Y-52070000D02*
X60960000Y-52070000D01*
X60960000Y-52070000D02*
X60960000Y-66040000D01*
X60960000Y-66040000D02*
X46990000Y-66040000D01*
X46990000Y-66040000D02*
X46990000Y-52070000D01*
X46990000Y-77470000D02*
X60960000Y-77470000D01*
X60960000Y-77470000D02*
X60960000Y-91440000D01*
X60960000Y-91440000D02*
X46990000Y-91440000D01*
X46990000Y-91440000D02*
X46990000Y-77470000D01*
X46990000Y-96520000D02*
X60960000Y-96520000D01*
X60960000Y-96520000D02*
X60960000Y-110490000D01*
X60960000Y-110490000D02*
X46990000Y-110490000D01*
X46990000Y-110490000D02*
X46990000Y-96520000D01*
X46990000Y-129540000D02*
X46990000Y-115570000D01*
X60960000Y-129540000D02*
X46990000Y-129540000D01*
X60960000Y-115570000D02*
X60960000Y-129540000D01*
X46990000Y-115570000D02*
X60960000Y-115570000D01*
X46990000Y-134620000D02*
X60960000Y-134620000D01*
X60960000Y-134620000D02*
X60960000Y-148590000D01*
X60960000Y-148590000D02*
X46990000Y-148590000D01*
X46990000Y-148590000D02*
X46990000Y-134620000D01*
X66040000Y-66040000D02*
X66040000Y-52070000D01*
X80010000Y-66040000D02*
X66040000Y-66040000D01*
X80010000Y-52070000D02*
X80010000Y-66040000D01*
X66040000Y-52070000D02*
X80010000Y-52070000D01*
X66040000Y-91440000D02*
X66040000Y-77470000D01*
X80010000Y-91440000D02*
X66040000Y-91440000D01*
X80010000Y-77470000D02*
X80010000Y-91440000D01*
X66040000Y-77470000D02*
X80010000Y-77470000D01*
X66040000Y-110490000D02*
X66040000Y-96520000D01*
X80010000Y-110490000D02*
X66040000Y-110490000D01*
X80010000Y-96520000D02*
X80010000Y-110490000D01*
X66040000Y-96520000D02*
X80010000Y-96520000D01*
X66040000Y-115570000D02*
X80010000Y-115570000D01*
X80010000Y-115570000D02*
X80010000Y-129540000D01*
X80010000Y-129540000D02*
X66040000Y-129540000D01*
X66040000Y-129540000D02*
X66040000Y-115570000D01*
X66040000Y-148590000D02*
X66040000Y-134620000D01*
X80010000Y-148590000D02*
X66040000Y-148590000D01*
X80010000Y-134620000D02*
X80010000Y-148590000D01*
X66040000Y-134620000D02*
X80010000Y-134620000D01*
X66040000Y-153670000D02*
X80010000Y-153670000D01*
X80010000Y-153670000D02*
X80010000Y-167640000D01*
X80010000Y-167640000D02*
X66040000Y-167640000D01*
X66040000Y-167640000D02*
X66040000Y-153670000D01*
X85090000Y-52070000D02*
X99060000Y-52070000D01*
X99060000Y-52070000D02*
X99060000Y-66040000D01*
X99060000Y-66040000D02*
X85090000Y-66040000D01*
X85090000Y-66040000D02*
X85090000Y-52070000D01*
X85090000Y-77470000D02*
X99060000Y-77470000D01*
X99060000Y-77470000D02*
X99060000Y-91440000D01*
X99060000Y-91440000D02*
X85090000Y-91440000D01*
X85090000Y-91440000D02*
X85090000Y-77470000D01*
X85090000Y-106045000D02*
X99060000Y-106045000D01*
X99060000Y-106045000D02*
X99060000Y-120015000D01*
X99060000Y-120015000D02*
X85090000Y-120015000D01*
X85090000Y-120015000D02*
X85090000Y-106045000D01*
X85090000Y-158115000D02*
X85090000Y-144145000D01*
X99060000Y-158115000D02*
X85090000Y-158115000D01*
X99060000Y-144145000D02*
X99060000Y-158115000D01*
X85090000Y-144145000D02*
X99060000Y-144145000D01*
X45450000Y-51090000D02*
X43450000Y-51090000D01*
X43450000Y-51090000D02*
X43450000Y-54990000D01*
X45450000Y-51090000D02*
X45450000Y-54990000D01*
X45450000Y-75855000D02*
X43450000Y-75855000D01*
X43450000Y-75855000D02*
X43450000Y-79755000D01*
X45450000Y-75855000D02*
X45450000Y-79755000D01*
X45450000Y-95540000D02*
X43450000Y-95540000D01*
X43450000Y-95540000D02*
X43450000Y-99440000D01*
X45450000Y-95540000D02*
X45450000Y-99440000D01*
X45450000Y-114590000D02*
X45450000Y-118490000D01*
X43450000Y-114590000D02*
X43450000Y-118490000D01*
X45450000Y-114590000D02*
X43450000Y-114590000D01*
X45450000Y-133640000D02*
X43450000Y-133640000D01*
X43450000Y-133640000D02*
X43450000Y-137540000D01*
X45450000Y-133640000D02*
X45450000Y-137540000D01*
X45450000Y-146340000D02*
X45450000Y-150240000D01*
X43450000Y-146340000D02*
X43450000Y-150240000D01*
X45450000Y-146340000D02*
X43450000Y-146340000D01*
X64500000Y-50455000D02*
X64500000Y-54355000D01*
X62500000Y-50455000D02*
X62500000Y-54355000D01*
X64500000Y-50455000D02*
X62500000Y-50455000D01*
X64500000Y-75855000D02*
X64500000Y-79755000D01*
X62500000Y-75855000D02*
X62500000Y-79755000D01*
X64500000Y-75855000D02*
X62500000Y-75855000D01*
X64500000Y-95540000D02*
X62500000Y-95540000D01*
X62500000Y-95540000D02*
X62500000Y-99440000D01*
X64500000Y-95540000D02*
X64500000Y-99440000D01*
X64500000Y-114590000D02*
X64500000Y-118490000D01*
X62500000Y-114590000D02*
X62500000Y-118490000D01*
X64500000Y-114590000D02*
X62500000Y-114590000D01*
X64500000Y-133640000D02*
X62500000Y-133640000D01*
X62500000Y-133640000D02*
X62500000Y-137540000D01*
X64500000Y-133640000D02*
X64500000Y-137540000D01*
X83550000Y-50455000D02*
X81550000Y-50455000D01*
X81550000Y-50455000D02*
X81550000Y-54355000D01*
X83550000Y-50455000D02*
X83550000Y-54355000D01*
X83550000Y-75855000D02*
X83550000Y-79755000D01*
X81550000Y-75855000D02*
X81550000Y-79755000D01*
X83550000Y-75855000D02*
X81550000Y-75855000D01*
X83550000Y-93000000D02*
X81550000Y-93000000D01*
X81550000Y-93000000D02*
X81550000Y-96900000D01*
X83550000Y-93000000D02*
X83550000Y-96900000D01*
X83550000Y-114590000D02*
X83550000Y-118490000D01*
X81550000Y-114590000D02*
X81550000Y-118490000D01*
X83550000Y-114590000D02*
X81550000Y-114590000D01*
X83550000Y-131100000D02*
X81550000Y-131100000D01*
X81550000Y-131100000D02*
X81550000Y-135000000D01*
X83550000Y-131100000D02*
X83550000Y-135000000D01*
X83550000Y-152690000D02*
X83550000Y-156590000D01*
X81550000Y-152690000D02*
X81550000Y-156590000D01*
X83550000Y-152690000D02*
X81550000Y-152690000D01*
X102600000Y-50455000D02*
X102600000Y-54355000D01*
X100600000Y-50455000D02*
X100600000Y-54355000D01*
X102600000Y-50455000D02*
X100600000Y-50455000D01*
X102600000Y-75855000D02*
X100600000Y-75855000D01*
X100600000Y-75855000D02*
X100600000Y-79755000D01*
X102600000Y-75855000D02*
X102600000Y-79755000D01*
X102600000Y-104430000D02*
X102600000Y-108330000D01*
X100600000Y-104430000D02*
X100600000Y-108330000D01*
X102600000Y-104430000D02*
X100600000Y-104430000D01*
X102600000Y-143800000D02*
X100600000Y-143800000D01*
X100600000Y-143800000D02*
X100600000Y-147700000D01*
X102600000Y-143800000D02*
X102600000Y-147700000D01*
X46930000Y-29720000D02*
X46930000Y-28920000D01*
X46930000Y-28920000D02*
X50860000Y-28920000D01*
X50860000Y-28920000D02*
X50860000Y-30040000D01*
X50860000Y-30040000D02*
X50784677Y-30040000D01*
X47365000Y-28920000D02*
X47365000Y-24920000D01*
X47365000Y-24920000D02*
X47885000Y-24920000D01*
X47885000Y-24920000D02*
X47885000Y-28920000D01*
X47425000Y-28920000D02*
X47425000Y-24920000D01*
X47545000Y-28920000D02*
X47545000Y-24920000D01*
X47665000Y-28920000D02*
X47665000Y-24920000D01*
X47785000Y-28920000D02*
X47785000Y-24920000D01*
X48260000Y-29720000D02*
X48260000Y-28920000D01*
X48635000Y-28920000D02*
X48635000Y-24920000D01*
X48635000Y-24920000D02*
X49155000Y-24920000D01*
X49155000Y-24920000D02*
X49155000Y-28920000D01*
X49530000Y-30040000D02*
X49530000Y-28920000D01*
X49514677Y-30040000D02*
X49545323Y-30040000D01*
X49905000Y-28920000D02*
X49905000Y-24920000D01*
X49905000Y-24920000D02*
X50425000Y-24920000D01*
X50425000Y-24920000D02*
X50425000Y-28920000D01*
X47625000Y-31240000D02*
X46865000Y-31240000D01*
X46865000Y-31240000D02*
X46865000Y-30480000D01*
D12*
X67975000Y-23635000D02*
X59025000Y-23635000D01*
X67975000Y-17325000D02*
X67975000Y-16975000D01*
X67975000Y-16975000D02*
X59025000Y-16975000D01*
X59025000Y-16975000D02*
X59025000Y-17325000D01*
D11*
X66940000Y-27600000D02*
X65140000Y-27600000D01*
X65140000Y-30820000D02*
X67590000Y-30820000D01*
X47610000Y-42345000D02*
X48060000Y-42345000D01*
X48060000Y-42345000D02*
X48060000Y-41895000D01*
X41290000Y-42345000D02*
X40840000Y-42345000D01*
X40840000Y-42345000D02*
X40840000Y-41895000D01*
X47610000Y-35125000D02*
X48060000Y-35125000D01*
X48060000Y-35125000D02*
X48060000Y-35575000D01*
X41290000Y-35125000D02*
X40840000Y-35125000D01*
X40840000Y-35125000D02*
X40840000Y-35575000D01*
X40840000Y-35575000D02*
X39550000Y-35575000D01*
X57910000Y-32060000D02*
X57910000Y-31130000D01*
X57910000Y-28900000D02*
X57910000Y-29830000D01*
X57910000Y-28900000D02*
X55750000Y-28900000D01*
X57910000Y-32060000D02*
X56450000Y-32060000D01*
X31220000Y-32225000D02*
X31220000Y-37975000D01*
X31220000Y-37975000D02*
X34820000Y-37975000D01*
X34820000Y-37975000D02*
X34820000Y-32225000D01*
D10*
X60793333Y-27222380D02*
X60460000Y-26746190D01*
X60221904Y-27222380D02*
X60221904Y-26222380D01*
X60602857Y-26222380D01*
X60698095Y-26270000D01*
X60745714Y-26317619D01*
X60793333Y-26412857D01*
X60793333Y-26555714D01*
X60745714Y-26650952D01*
X60698095Y-26698571D01*
X60602857Y-26746190D01*
X60221904Y-26746190D01*
X61650476Y-26555714D02*
X61650476Y-27222380D01*
X61412380Y-26174761D02*
X61174285Y-26889047D01*
X61793333Y-26889047D01*
X33591666Y-51585761D02*
X33734523Y-51633380D01*
X33972619Y-51633380D01*
X34067857Y-51585761D01*
X34115476Y-51538142D01*
X34163095Y-51442904D01*
X34163095Y-51347666D01*
X34115476Y-51252428D01*
X34067857Y-51204809D01*
X33972619Y-51157190D01*
X33782142Y-51109571D01*
X33686904Y-51061952D01*
X33639285Y-51014333D01*
X33591666Y-50919095D01*
X33591666Y-50823857D01*
X33639285Y-50728619D01*
X33686904Y-50681000D01*
X33782142Y-50633380D01*
X34020238Y-50633380D01*
X34163095Y-50681000D01*
X34496428Y-50633380D02*
X34734523Y-51633380D01*
X34925000Y-50919095D01*
X35115476Y-51633380D01*
X35353571Y-50633380D01*
X36258333Y-51633380D02*
X35686904Y-51633380D01*
X35972619Y-51633380D02*
X35972619Y-50633380D01*
X35877380Y-50776238D01*
X35782142Y-50871476D01*
X35686904Y-50919095D01*
X33591666Y-76985761D02*
X33734523Y-77033380D01*
X33972619Y-77033380D01*
X34067857Y-76985761D01*
X34115476Y-76938142D01*
X34163095Y-76842904D01*
X34163095Y-76747666D01*
X34115476Y-76652428D01*
X34067857Y-76604809D01*
X33972619Y-76557190D01*
X33782142Y-76509571D01*
X33686904Y-76461952D01*
X33639285Y-76414333D01*
X33591666Y-76319095D01*
X33591666Y-76223857D01*
X33639285Y-76128619D01*
X33686904Y-76081000D01*
X33782142Y-76033380D01*
X34020238Y-76033380D01*
X34163095Y-76081000D01*
X34496428Y-76033380D02*
X34734523Y-77033380D01*
X34925000Y-76319095D01*
X35115476Y-77033380D01*
X35353571Y-76033380D01*
X35686904Y-76128619D02*
X35734523Y-76081000D01*
X35829761Y-76033380D01*
X36067857Y-76033380D01*
X36163095Y-76081000D01*
X36210714Y-76128619D01*
X36258333Y-76223857D01*
X36258333Y-76319095D01*
X36210714Y-76461952D01*
X35639285Y-77033380D01*
X36258333Y-77033380D01*
X33591666Y-96035761D02*
X33734523Y-96083380D01*
X33972619Y-96083380D01*
X34067857Y-96035761D01*
X34115476Y-95988142D01*
X34163095Y-95892904D01*
X34163095Y-95797666D01*
X34115476Y-95702428D01*
X34067857Y-95654809D01*
X33972619Y-95607190D01*
X33782142Y-95559571D01*
X33686904Y-95511952D01*
X33639285Y-95464333D01*
X33591666Y-95369095D01*
X33591666Y-95273857D01*
X33639285Y-95178619D01*
X33686904Y-95131000D01*
X33782142Y-95083380D01*
X34020238Y-95083380D01*
X34163095Y-95131000D01*
X34496428Y-95083380D02*
X34734523Y-96083380D01*
X34925000Y-95369095D01*
X35115476Y-96083380D01*
X35353571Y-95083380D01*
X35639285Y-95083380D02*
X36258333Y-95083380D01*
X35925000Y-95464333D01*
X36067857Y-95464333D01*
X36163095Y-95511952D01*
X36210714Y-95559571D01*
X36258333Y-95654809D01*
X36258333Y-95892904D01*
X36210714Y-95988142D01*
X36163095Y-96035761D01*
X36067857Y-96083380D01*
X35782142Y-96083380D01*
X35686904Y-96035761D01*
X35639285Y-95988142D01*
X33591666Y-115085761D02*
X33734523Y-115133380D01*
X33972619Y-115133380D01*
X34067857Y-115085761D01*
X34115476Y-115038142D01*
X34163095Y-114942904D01*
X34163095Y-114847666D01*
X34115476Y-114752428D01*
X34067857Y-114704809D01*
X33972619Y-114657190D01*
X33782142Y-114609571D01*
X33686904Y-114561952D01*
X33639285Y-114514333D01*
X33591666Y-114419095D01*
X33591666Y-114323857D01*
X33639285Y-114228619D01*
X33686904Y-114181000D01*
X33782142Y-114133380D01*
X34020238Y-114133380D01*
X34163095Y-114181000D01*
X34496428Y-114133380D02*
X34734523Y-115133380D01*
X34925000Y-114419095D01*
X35115476Y-115133380D01*
X35353571Y-114133380D01*
X36163095Y-114466714D02*
X36163095Y-115133380D01*
X35925000Y-114085761D02*
X35686904Y-114800047D01*
X36305952Y-114800047D01*
X33591666Y-134135761D02*
X33734523Y-134183380D01*
X33972619Y-134183380D01*
X34067857Y-134135761D01*
X34115476Y-134088142D01*
X34163095Y-133992904D01*
X34163095Y-133897666D01*
X34115476Y-133802428D01*
X34067857Y-133754809D01*
X33972619Y-133707190D01*
X33782142Y-133659571D01*
X33686904Y-133611952D01*
X33639285Y-133564333D01*
X33591666Y-133469095D01*
X33591666Y-133373857D01*
X33639285Y-133278619D01*
X33686904Y-133231000D01*
X33782142Y-133183380D01*
X34020238Y-133183380D01*
X34163095Y-133231000D01*
X34496428Y-133183380D02*
X34734523Y-134183380D01*
X34925000Y-133469095D01*
X35115476Y-134183380D01*
X35353571Y-133183380D01*
X36210714Y-133183380D02*
X35734523Y-133183380D01*
X35686904Y-133659571D01*
X35734523Y-133611952D01*
X35829761Y-133564333D01*
X36067857Y-133564333D01*
X36163095Y-133611952D01*
X36210714Y-133659571D01*
X36258333Y-133754809D01*
X36258333Y-133992904D01*
X36210714Y-134088142D01*
X36163095Y-134135761D01*
X36067857Y-134183380D01*
X35829761Y-134183380D01*
X35734523Y-134135761D01*
X35686904Y-134088142D01*
X43116666Y-153185761D02*
X43259523Y-153233380D01*
X43497619Y-153233380D01*
X43592857Y-153185761D01*
X43640476Y-153138142D01*
X43688095Y-153042904D01*
X43688095Y-152947666D01*
X43640476Y-152852428D01*
X43592857Y-152804809D01*
X43497619Y-152757190D01*
X43307142Y-152709571D01*
X43211904Y-152661952D01*
X43164285Y-152614333D01*
X43116666Y-152519095D01*
X43116666Y-152423857D01*
X43164285Y-152328619D01*
X43211904Y-152281000D01*
X43307142Y-152233380D01*
X43545238Y-152233380D01*
X43688095Y-152281000D01*
X44021428Y-152233380D02*
X44259523Y-153233380D01*
X44450000Y-152519095D01*
X44640476Y-153233380D01*
X44878571Y-152233380D01*
X45688095Y-152233380D02*
X45497619Y-152233380D01*
X45402380Y-152281000D01*
X45354761Y-152328619D01*
X45259523Y-152471476D01*
X45211904Y-152661952D01*
X45211904Y-153042904D01*
X45259523Y-153138142D01*
X45307142Y-153185761D01*
X45402380Y-153233380D01*
X45592857Y-153233380D01*
X45688095Y-153185761D01*
X45735714Y-153138142D01*
X45783333Y-153042904D01*
X45783333Y-152804809D01*
X45735714Y-152709571D01*
X45688095Y-152661952D01*
X45592857Y-152614333D01*
X45402380Y-152614333D01*
X45307142Y-152661952D01*
X45259523Y-152709571D01*
X45211904Y-152804809D01*
X52641666Y-51585761D02*
X52784523Y-51633380D01*
X53022619Y-51633380D01*
X53117857Y-51585761D01*
X53165476Y-51538142D01*
X53213095Y-51442904D01*
X53213095Y-51347666D01*
X53165476Y-51252428D01*
X53117857Y-51204809D01*
X53022619Y-51157190D01*
X52832142Y-51109571D01*
X52736904Y-51061952D01*
X52689285Y-51014333D01*
X52641666Y-50919095D01*
X52641666Y-50823857D01*
X52689285Y-50728619D01*
X52736904Y-50681000D01*
X52832142Y-50633380D01*
X53070238Y-50633380D01*
X53213095Y-50681000D01*
X53546428Y-50633380D02*
X53784523Y-51633380D01*
X53975000Y-50919095D01*
X54165476Y-51633380D01*
X54403571Y-50633380D01*
X54689285Y-50633380D02*
X55355952Y-50633380D01*
X54927380Y-51633380D01*
X52641666Y-76985761D02*
X52784523Y-77033380D01*
X53022619Y-77033380D01*
X53117857Y-76985761D01*
X53165476Y-76938142D01*
X53213095Y-76842904D01*
X53213095Y-76747666D01*
X53165476Y-76652428D01*
X53117857Y-76604809D01*
X53022619Y-76557190D01*
X52832142Y-76509571D01*
X52736904Y-76461952D01*
X52689285Y-76414333D01*
X52641666Y-76319095D01*
X52641666Y-76223857D01*
X52689285Y-76128619D01*
X52736904Y-76081000D01*
X52832142Y-76033380D01*
X53070238Y-76033380D01*
X53213095Y-76081000D01*
X53546428Y-76033380D02*
X53784523Y-77033380D01*
X53975000Y-76319095D01*
X54165476Y-77033380D01*
X54403571Y-76033380D01*
X54927380Y-76461952D02*
X54832142Y-76414333D01*
X54784523Y-76366714D01*
X54736904Y-76271476D01*
X54736904Y-76223857D01*
X54784523Y-76128619D01*
X54832142Y-76081000D01*
X54927380Y-76033380D01*
X55117857Y-76033380D01*
X55213095Y-76081000D01*
X55260714Y-76128619D01*
X55308333Y-76223857D01*
X55308333Y-76271476D01*
X55260714Y-76366714D01*
X55213095Y-76414333D01*
X55117857Y-76461952D01*
X54927380Y-76461952D01*
X54832142Y-76509571D01*
X54784523Y-76557190D01*
X54736904Y-76652428D01*
X54736904Y-76842904D01*
X54784523Y-76938142D01*
X54832142Y-76985761D01*
X54927380Y-77033380D01*
X55117857Y-77033380D01*
X55213095Y-76985761D01*
X55260714Y-76938142D01*
X55308333Y-76842904D01*
X55308333Y-76652428D01*
X55260714Y-76557190D01*
X55213095Y-76509571D01*
X55117857Y-76461952D01*
X52641666Y-96035761D02*
X52784523Y-96083380D01*
X53022619Y-96083380D01*
X53117857Y-96035761D01*
X53165476Y-95988142D01*
X53213095Y-95892904D01*
X53213095Y-95797666D01*
X53165476Y-95702428D01*
X53117857Y-95654809D01*
X53022619Y-95607190D01*
X52832142Y-95559571D01*
X52736904Y-95511952D01*
X52689285Y-95464333D01*
X52641666Y-95369095D01*
X52641666Y-95273857D01*
X52689285Y-95178619D01*
X52736904Y-95131000D01*
X52832142Y-95083380D01*
X53070238Y-95083380D01*
X53213095Y-95131000D01*
X53546428Y-95083380D02*
X53784523Y-96083380D01*
X53975000Y-95369095D01*
X54165476Y-96083380D01*
X54403571Y-95083380D01*
X54832142Y-96083380D02*
X55022619Y-96083380D01*
X55117857Y-96035761D01*
X55165476Y-95988142D01*
X55260714Y-95845285D01*
X55308333Y-95654809D01*
X55308333Y-95273857D01*
X55260714Y-95178619D01*
X55213095Y-95131000D01*
X55117857Y-95083380D01*
X54927380Y-95083380D01*
X54832142Y-95131000D01*
X54784523Y-95178619D01*
X54736904Y-95273857D01*
X54736904Y-95511952D01*
X54784523Y-95607190D01*
X54832142Y-95654809D01*
X54927380Y-95702428D01*
X55117857Y-95702428D01*
X55213095Y-95654809D01*
X55260714Y-95607190D01*
X55308333Y-95511952D01*
X52165476Y-115085761D02*
X52308333Y-115133380D01*
X52546428Y-115133380D01*
X52641666Y-115085761D01*
X52689285Y-115038142D01*
X52736904Y-114942904D01*
X52736904Y-114847666D01*
X52689285Y-114752428D01*
X52641666Y-114704809D01*
X52546428Y-114657190D01*
X52355952Y-114609571D01*
X52260714Y-114561952D01*
X52213095Y-114514333D01*
X52165476Y-114419095D01*
X52165476Y-114323857D01*
X52213095Y-114228619D01*
X52260714Y-114181000D01*
X52355952Y-114133380D01*
X52594047Y-114133380D01*
X52736904Y-114181000D01*
X53070238Y-114133380D02*
X53308333Y-115133380D01*
X53498809Y-114419095D01*
X53689285Y-115133380D01*
X53927380Y-114133380D01*
X54832142Y-115133380D02*
X54260714Y-115133380D01*
X54546428Y-115133380D02*
X54546428Y-114133380D01*
X54451190Y-114276238D01*
X54355952Y-114371476D01*
X54260714Y-114419095D01*
X55451190Y-114133380D02*
X55546428Y-114133380D01*
X55641666Y-114181000D01*
X55689285Y-114228619D01*
X55736904Y-114323857D01*
X55784523Y-114514333D01*
X55784523Y-114752428D01*
X55736904Y-114942904D01*
X55689285Y-115038142D01*
X55641666Y-115085761D01*
X55546428Y-115133380D01*
X55451190Y-115133380D01*
X55355952Y-115085761D01*
X55308333Y-115038142D01*
X55260714Y-114942904D01*
X55213095Y-114752428D01*
X55213095Y-114514333D01*
X55260714Y-114323857D01*
X55308333Y-114228619D01*
X55355952Y-114181000D01*
X55451190Y-114133380D01*
X52165476Y-134135761D02*
X52308333Y-134183380D01*
X52546428Y-134183380D01*
X52641666Y-134135761D01*
X52689285Y-134088142D01*
X52736904Y-133992904D01*
X52736904Y-133897666D01*
X52689285Y-133802428D01*
X52641666Y-133754809D01*
X52546428Y-133707190D01*
X52355952Y-133659571D01*
X52260714Y-133611952D01*
X52213095Y-133564333D01*
X52165476Y-133469095D01*
X52165476Y-133373857D01*
X52213095Y-133278619D01*
X52260714Y-133231000D01*
X52355952Y-133183380D01*
X52594047Y-133183380D01*
X52736904Y-133231000D01*
X53070238Y-133183380D02*
X53308333Y-134183380D01*
X53498809Y-133469095D01*
X53689285Y-134183380D01*
X53927380Y-133183380D01*
X54832142Y-134183380D02*
X54260714Y-134183380D01*
X54546428Y-134183380D02*
X54546428Y-133183380D01*
X54451190Y-133326238D01*
X54355952Y-133421476D01*
X54260714Y-133469095D01*
X55784523Y-134183380D02*
X55213095Y-134183380D01*
X55498809Y-134183380D02*
X55498809Y-133183380D01*
X55403571Y-133326238D01*
X55308333Y-133421476D01*
X55213095Y-133469095D01*
X71215476Y-51585761D02*
X71358333Y-51633380D01*
X71596428Y-51633380D01*
X71691666Y-51585761D01*
X71739285Y-51538142D01*
X71786904Y-51442904D01*
X71786904Y-51347666D01*
X71739285Y-51252428D01*
X71691666Y-51204809D01*
X71596428Y-51157190D01*
X71405952Y-51109571D01*
X71310714Y-51061952D01*
X71263095Y-51014333D01*
X71215476Y-50919095D01*
X71215476Y-50823857D01*
X71263095Y-50728619D01*
X71310714Y-50681000D01*
X71405952Y-50633380D01*
X71644047Y-50633380D01*
X71786904Y-50681000D01*
X72120238Y-50633380D02*
X72358333Y-51633380D01*
X72548809Y-50919095D01*
X72739285Y-51633380D01*
X72977380Y-50633380D01*
X73882142Y-51633380D02*
X73310714Y-51633380D01*
X73596428Y-51633380D02*
X73596428Y-50633380D01*
X73501190Y-50776238D01*
X73405952Y-50871476D01*
X73310714Y-50919095D01*
X74263095Y-50728619D02*
X74310714Y-50681000D01*
X74405952Y-50633380D01*
X74644047Y-50633380D01*
X74739285Y-50681000D01*
X74786904Y-50728619D01*
X74834523Y-50823857D01*
X74834523Y-50919095D01*
X74786904Y-51061952D01*
X74215476Y-51633380D01*
X74834523Y-51633380D01*
X71215476Y-76985761D02*
X71358333Y-77033380D01*
X71596428Y-77033380D01*
X71691666Y-76985761D01*
X71739285Y-76938142D01*
X71786904Y-76842904D01*
X71786904Y-76747666D01*
X71739285Y-76652428D01*
X71691666Y-76604809D01*
X71596428Y-76557190D01*
X71405952Y-76509571D01*
X71310714Y-76461952D01*
X71263095Y-76414333D01*
X71215476Y-76319095D01*
X71215476Y-76223857D01*
X71263095Y-76128619D01*
X71310714Y-76081000D01*
X71405952Y-76033380D01*
X71644047Y-76033380D01*
X71786904Y-76081000D01*
X72120238Y-76033380D02*
X72358333Y-77033380D01*
X72548809Y-76319095D01*
X72739285Y-77033380D01*
X72977380Y-76033380D01*
X73882142Y-77033380D02*
X73310714Y-77033380D01*
X73596428Y-77033380D02*
X73596428Y-76033380D01*
X73501190Y-76176238D01*
X73405952Y-76271476D01*
X73310714Y-76319095D01*
X74215476Y-76033380D02*
X74834523Y-76033380D01*
X74501190Y-76414333D01*
X74644047Y-76414333D01*
X74739285Y-76461952D01*
X74786904Y-76509571D01*
X74834523Y-76604809D01*
X74834523Y-76842904D01*
X74786904Y-76938142D01*
X74739285Y-76985761D01*
X74644047Y-77033380D01*
X74358333Y-77033380D01*
X74263095Y-76985761D01*
X74215476Y-76938142D01*
X71215476Y-96035761D02*
X71358333Y-96083380D01*
X71596428Y-96083380D01*
X71691666Y-96035761D01*
X71739285Y-95988142D01*
X71786904Y-95892904D01*
X71786904Y-95797666D01*
X71739285Y-95702428D01*
X71691666Y-95654809D01*
X71596428Y-95607190D01*
X71405952Y-95559571D01*
X71310714Y-95511952D01*
X71263095Y-95464333D01*
X71215476Y-95369095D01*
X71215476Y-95273857D01*
X71263095Y-95178619D01*
X71310714Y-95131000D01*
X71405952Y-95083380D01*
X71644047Y-95083380D01*
X71786904Y-95131000D01*
X72120238Y-95083380D02*
X72358333Y-96083380D01*
X72548809Y-95369095D01*
X72739285Y-96083380D01*
X72977380Y-95083380D01*
X73882142Y-96083380D02*
X73310714Y-96083380D01*
X73596428Y-96083380D02*
X73596428Y-95083380D01*
X73501190Y-95226238D01*
X73405952Y-95321476D01*
X73310714Y-95369095D01*
X74739285Y-95416714D02*
X74739285Y-96083380D01*
X74501190Y-95035761D02*
X74263095Y-95750047D01*
X74882142Y-95750047D01*
X71215476Y-115085761D02*
X71358333Y-115133380D01*
X71596428Y-115133380D01*
X71691666Y-115085761D01*
X71739285Y-115038142D01*
X71786904Y-114942904D01*
X71786904Y-114847666D01*
X71739285Y-114752428D01*
X71691666Y-114704809D01*
X71596428Y-114657190D01*
X71405952Y-114609571D01*
X71310714Y-114561952D01*
X71263095Y-114514333D01*
X71215476Y-114419095D01*
X71215476Y-114323857D01*
X71263095Y-114228619D01*
X71310714Y-114181000D01*
X71405952Y-114133380D01*
X71644047Y-114133380D01*
X71786904Y-114181000D01*
X72120238Y-114133380D02*
X72358333Y-115133380D01*
X72548809Y-114419095D01*
X72739285Y-115133380D01*
X72977380Y-114133380D01*
X73882142Y-115133380D02*
X73310714Y-115133380D01*
X73596428Y-115133380D02*
X73596428Y-114133380D01*
X73501190Y-114276238D01*
X73405952Y-114371476D01*
X73310714Y-114419095D01*
X74786904Y-114133380D02*
X74310714Y-114133380D01*
X74263095Y-114609571D01*
X74310714Y-114561952D01*
X74405952Y-114514333D01*
X74644047Y-114514333D01*
X74739285Y-114561952D01*
X74786904Y-114609571D01*
X74834523Y-114704809D01*
X74834523Y-114942904D01*
X74786904Y-115038142D01*
X74739285Y-115085761D01*
X74644047Y-115133380D01*
X74405952Y-115133380D01*
X74310714Y-115085761D01*
X74263095Y-115038142D01*
X71215476Y-134135761D02*
X71358333Y-134183380D01*
X71596428Y-134183380D01*
X71691666Y-134135761D01*
X71739285Y-134088142D01*
X71786904Y-133992904D01*
X71786904Y-133897666D01*
X71739285Y-133802428D01*
X71691666Y-133754809D01*
X71596428Y-133707190D01*
X71405952Y-133659571D01*
X71310714Y-133611952D01*
X71263095Y-133564333D01*
X71215476Y-133469095D01*
X71215476Y-133373857D01*
X71263095Y-133278619D01*
X71310714Y-133231000D01*
X71405952Y-133183380D01*
X71644047Y-133183380D01*
X71786904Y-133231000D01*
X72120238Y-133183380D02*
X72358333Y-134183380D01*
X72548809Y-133469095D01*
X72739285Y-134183380D01*
X72977380Y-133183380D01*
X73882142Y-134183380D02*
X73310714Y-134183380D01*
X73596428Y-134183380D02*
X73596428Y-133183380D01*
X73501190Y-133326238D01*
X73405952Y-133421476D01*
X73310714Y-133469095D01*
X74739285Y-133183380D02*
X74548809Y-133183380D01*
X74453571Y-133231000D01*
X74405952Y-133278619D01*
X74310714Y-133421476D01*
X74263095Y-133611952D01*
X74263095Y-133992904D01*
X74310714Y-134088142D01*
X74358333Y-134135761D01*
X74453571Y-134183380D01*
X74644047Y-134183380D01*
X74739285Y-134135761D01*
X74786904Y-134088142D01*
X74834523Y-133992904D01*
X74834523Y-133754809D01*
X74786904Y-133659571D01*
X74739285Y-133611952D01*
X74644047Y-133564333D01*
X74453571Y-133564333D01*
X74358333Y-133611952D01*
X74310714Y-133659571D01*
X74263095Y-133754809D01*
X71215476Y-153185761D02*
X71358333Y-153233380D01*
X71596428Y-153233380D01*
X71691666Y-153185761D01*
X71739285Y-153138142D01*
X71786904Y-153042904D01*
X71786904Y-152947666D01*
X71739285Y-152852428D01*
X71691666Y-152804809D01*
X71596428Y-152757190D01*
X71405952Y-152709571D01*
X71310714Y-152661952D01*
X71263095Y-152614333D01*
X71215476Y-152519095D01*
X71215476Y-152423857D01*
X71263095Y-152328619D01*
X71310714Y-152281000D01*
X71405952Y-152233380D01*
X71644047Y-152233380D01*
X71786904Y-152281000D01*
X72120238Y-152233380D02*
X72358333Y-153233380D01*
X72548809Y-152519095D01*
X72739285Y-153233380D01*
X72977380Y-152233380D01*
X73882142Y-153233380D02*
X73310714Y-153233380D01*
X73596428Y-153233380D02*
X73596428Y-152233380D01*
X73501190Y-152376238D01*
X73405952Y-152471476D01*
X73310714Y-152519095D01*
X74215476Y-152233380D02*
X74882142Y-152233380D01*
X74453571Y-153233380D01*
X90265476Y-51585761D02*
X90408333Y-51633380D01*
X90646428Y-51633380D01*
X90741666Y-51585761D01*
X90789285Y-51538142D01*
X90836904Y-51442904D01*
X90836904Y-51347666D01*
X90789285Y-51252428D01*
X90741666Y-51204809D01*
X90646428Y-51157190D01*
X90455952Y-51109571D01*
X90360714Y-51061952D01*
X90313095Y-51014333D01*
X90265476Y-50919095D01*
X90265476Y-50823857D01*
X90313095Y-50728619D01*
X90360714Y-50681000D01*
X90455952Y-50633380D01*
X90694047Y-50633380D01*
X90836904Y-50681000D01*
X91170238Y-50633380D02*
X91408333Y-51633380D01*
X91598809Y-50919095D01*
X91789285Y-51633380D01*
X92027380Y-50633380D01*
X92932142Y-51633380D02*
X92360714Y-51633380D01*
X92646428Y-51633380D02*
X92646428Y-50633380D01*
X92551190Y-50776238D01*
X92455952Y-50871476D01*
X92360714Y-50919095D01*
X93503571Y-51061952D02*
X93408333Y-51014333D01*
X93360714Y-50966714D01*
X93313095Y-50871476D01*
X93313095Y-50823857D01*
X93360714Y-50728619D01*
X93408333Y-50681000D01*
X93503571Y-50633380D01*
X93694047Y-50633380D01*
X93789285Y-50681000D01*
X93836904Y-50728619D01*
X93884523Y-50823857D01*
X93884523Y-50871476D01*
X93836904Y-50966714D01*
X93789285Y-51014333D01*
X93694047Y-51061952D01*
X93503571Y-51061952D01*
X93408333Y-51109571D01*
X93360714Y-51157190D01*
X93313095Y-51252428D01*
X93313095Y-51442904D01*
X93360714Y-51538142D01*
X93408333Y-51585761D01*
X93503571Y-51633380D01*
X93694047Y-51633380D01*
X93789285Y-51585761D01*
X93836904Y-51538142D01*
X93884523Y-51442904D01*
X93884523Y-51252428D01*
X93836904Y-51157190D01*
X93789285Y-51109571D01*
X93694047Y-51061952D01*
X90265476Y-76985761D02*
X90408333Y-77033380D01*
X90646428Y-77033380D01*
X90741666Y-76985761D01*
X90789285Y-76938142D01*
X90836904Y-76842904D01*
X90836904Y-76747666D01*
X90789285Y-76652428D01*
X90741666Y-76604809D01*
X90646428Y-76557190D01*
X90455952Y-76509571D01*
X90360714Y-76461952D01*
X90313095Y-76414333D01*
X90265476Y-76319095D01*
X90265476Y-76223857D01*
X90313095Y-76128619D01*
X90360714Y-76081000D01*
X90455952Y-76033380D01*
X90694047Y-76033380D01*
X90836904Y-76081000D01*
X91170238Y-76033380D02*
X91408333Y-77033380D01*
X91598809Y-76319095D01*
X91789285Y-77033380D01*
X92027380Y-76033380D01*
X92932142Y-77033380D02*
X92360714Y-77033380D01*
X92646428Y-77033380D02*
X92646428Y-76033380D01*
X92551190Y-76176238D01*
X92455952Y-76271476D01*
X92360714Y-76319095D01*
X93408333Y-77033380D02*
X93598809Y-77033380D01*
X93694047Y-76985761D01*
X93741666Y-76938142D01*
X93836904Y-76795285D01*
X93884523Y-76604809D01*
X93884523Y-76223857D01*
X93836904Y-76128619D01*
X93789285Y-76081000D01*
X93694047Y-76033380D01*
X93503571Y-76033380D01*
X93408333Y-76081000D01*
X93360714Y-76128619D01*
X93313095Y-76223857D01*
X93313095Y-76461952D01*
X93360714Y-76557190D01*
X93408333Y-76604809D01*
X93503571Y-76652428D01*
X93694047Y-76652428D01*
X93789285Y-76604809D01*
X93836904Y-76557190D01*
X93884523Y-76461952D01*
X90265476Y-105560761D02*
X90408333Y-105608380D01*
X90646428Y-105608380D01*
X90741666Y-105560761D01*
X90789285Y-105513142D01*
X90836904Y-105417904D01*
X90836904Y-105322666D01*
X90789285Y-105227428D01*
X90741666Y-105179809D01*
X90646428Y-105132190D01*
X90455952Y-105084571D01*
X90360714Y-105036952D01*
X90313095Y-104989333D01*
X90265476Y-104894095D01*
X90265476Y-104798857D01*
X90313095Y-104703619D01*
X90360714Y-104656000D01*
X90455952Y-104608380D01*
X90694047Y-104608380D01*
X90836904Y-104656000D01*
X91170238Y-104608380D02*
X91408333Y-105608380D01*
X91598809Y-104894095D01*
X91789285Y-105608380D01*
X92027380Y-104608380D01*
X92360714Y-104703619D02*
X92408333Y-104656000D01*
X92503571Y-104608380D01*
X92741666Y-104608380D01*
X92836904Y-104656000D01*
X92884523Y-104703619D01*
X92932142Y-104798857D01*
X92932142Y-104894095D01*
X92884523Y-105036952D01*
X92313095Y-105608380D01*
X92932142Y-105608380D01*
X93551190Y-104608380D02*
X93646428Y-104608380D01*
X93741666Y-104656000D01*
X93789285Y-104703619D01*
X93836904Y-104798857D01*
X93884523Y-104989333D01*
X93884523Y-105227428D01*
X93836904Y-105417904D01*
X93789285Y-105513142D01*
X93741666Y-105560761D01*
X93646428Y-105608380D01*
X93551190Y-105608380D01*
X93455952Y-105560761D01*
X93408333Y-105513142D01*
X93360714Y-105417904D01*
X93313095Y-105227428D01*
X93313095Y-104989333D01*
X93360714Y-104798857D01*
X93408333Y-104703619D01*
X93455952Y-104656000D01*
X93551190Y-104608380D01*
X90265476Y-143660761D02*
X90408333Y-143708380D01*
X90646428Y-143708380D01*
X90741666Y-143660761D01*
X90789285Y-143613142D01*
X90836904Y-143517904D01*
X90836904Y-143422666D01*
X90789285Y-143327428D01*
X90741666Y-143279809D01*
X90646428Y-143232190D01*
X90455952Y-143184571D01*
X90360714Y-143136952D01*
X90313095Y-143089333D01*
X90265476Y-142994095D01*
X90265476Y-142898857D01*
X90313095Y-142803619D01*
X90360714Y-142756000D01*
X90455952Y-142708380D01*
X90694047Y-142708380D01*
X90836904Y-142756000D01*
X91170238Y-142708380D02*
X91408333Y-143708380D01*
X91598809Y-142994095D01*
X91789285Y-143708380D01*
X92027380Y-142708380D01*
X92360714Y-142803619D02*
X92408333Y-142756000D01*
X92503571Y-142708380D01*
X92741666Y-142708380D01*
X92836904Y-142756000D01*
X92884523Y-142803619D01*
X92932142Y-142898857D01*
X92932142Y-142994095D01*
X92884523Y-143136952D01*
X92313095Y-143708380D01*
X92932142Y-143708380D01*
X93884523Y-143708380D02*
X93313095Y-143708380D01*
X93598809Y-143708380D02*
X93598809Y-142708380D01*
X93503571Y-142851238D01*
X93408333Y-142946476D01*
X93313095Y-142994095D01*
X37187142Y-35091666D02*
X37234761Y-35139285D01*
X37282380Y-35282142D01*
X37282380Y-35377380D01*
X37234761Y-35520238D01*
X37139523Y-35615476D01*
X37044285Y-35663095D01*
X36853809Y-35710714D01*
X36710952Y-35710714D01*
X36520476Y-35663095D01*
X36425238Y-35615476D01*
X36330000Y-35520238D01*
X36282380Y-35377380D01*
X36282380Y-35282142D01*
X36330000Y-35139285D01*
X36377619Y-35091666D01*
X37282380Y-34139285D02*
X37282380Y-34710714D01*
X37282380Y-34425000D02*
X36282380Y-34425000D01*
X36425238Y-34520238D01*
X36520476Y-34615476D01*
X36568095Y-34710714D01*
X45553333Y-45442142D02*
X45505714Y-45489761D01*
X45362857Y-45537380D01*
X45267619Y-45537380D01*
X45124761Y-45489761D01*
X45029523Y-45394523D01*
X44981904Y-45299285D01*
X44934285Y-45108809D01*
X44934285Y-44965952D01*
X44981904Y-44775476D01*
X45029523Y-44680238D01*
X45124761Y-44585000D01*
X45267619Y-44537380D01*
X45362857Y-44537380D01*
X45505714Y-44585000D01*
X45553333Y-44632619D01*
X45934285Y-44632619D02*
X45981904Y-44585000D01*
X46077142Y-44537380D01*
X46315238Y-44537380D01*
X46410476Y-44585000D01*
X46458095Y-44632619D01*
X46505714Y-44727857D01*
X46505714Y-44823095D01*
X46458095Y-44965952D01*
X45886666Y-45537380D01*
X46505714Y-45537380D01*
X51157142Y-38266666D02*
X51204761Y-38314285D01*
X51252380Y-38457142D01*
X51252380Y-38552380D01*
X51204761Y-38695238D01*
X51109523Y-38790476D01*
X51014285Y-38838095D01*
X50823809Y-38885714D01*
X50680952Y-38885714D01*
X50490476Y-38838095D01*
X50395238Y-38790476D01*
X50300000Y-38695238D01*
X50252380Y-38552380D01*
X50252380Y-38457142D01*
X50300000Y-38314285D01*
X50347619Y-38266666D01*
X50252380Y-37933333D02*
X50252380Y-37314285D01*
X50633333Y-37647619D01*
X50633333Y-37504761D01*
X50680952Y-37409523D01*
X50728571Y-37361904D01*
X50823809Y-37314285D01*
X51061904Y-37314285D01*
X51157142Y-37361904D01*
X51204761Y-37409523D01*
X51252380Y-37504761D01*
X51252380Y-37790476D01*
X51204761Y-37885714D01*
X51157142Y-37933333D01*
X39203333Y-32742142D02*
X39155714Y-32789761D01*
X39012857Y-32837380D01*
X38917619Y-32837380D01*
X38774761Y-32789761D01*
X38679523Y-32694523D01*
X38631904Y-32599285D01*
X38584285Y-32408809D01*
X38584285Y-32265952D01*
X38631904Y-32075476D01*
X38679523Y-31980238D01*
X38774761Y-31885000D01*
X38917619Y-31837380D01*
X39012857Y-31837380D01*
X39155714Y-31885000D01*
X39203333Y-31932619D01*
X40060476Y-32170714D02*
X40060476Y-32837380D01*
X39822380Y-31789761D02*
X39584285Y-32504047D01*
X40203333Y-32504047D01*
X37822142Y-43346666D02*
X37869761Y-43394285D01*
X37917380Y-43537142D01*
X37917380Y-43632380D01*
X37869761Y-43775238D01*
X37774523Y-43870476D01*
X37679285Y-43918095D01*
X37488809Y-43965714D01*
X37345952Y-43965714D01*
X37155476Y-43918095D01*
X37060238Y-43870476D01*
X36965000Y-43775238D01*
X36917380Y-43632380D01*
X36917380Y-43537142D01*
X36965000Y-43394285D01*
X37012619Y-43346666D01*
X36917380Y-42441904D02*
X36917380Y-42918095D01*
X37393571Y-42965714D01*
X37345952Y-42918095D01*
X37298333Y-42822857D01*
X37298333Y-42584761D01*
X37345952Y-42489523D01*
X37393571Y-42441904D01*
X37488809Y-42394285D01*
X37726904Y-42394285D01*
X37822142Y-42441904D01*
X37869761Y-42489523D01*
X37917380Y-42584761D01*
X37917380Y-42822857D01*
X37869761Y-42918095D01*
X37822142Y-42965714D01*
X36552142Y-43346666D02*
X36599761Y-43394285D01*
X36647380Y-43537142D01*
X36647380Y-43632380D01*
X36599761Y-43775238D01*
X36504523Y-43870476D01*
X36409285Y-43918095D01*
X36218809Y-43965714D01*
X36075952Y-43965714D01*
X35885476Y-43918095D01*
X35790238Y-43870476D01*
X35695000Y-43775238D01*
X35647380Y-43632380D01*
X35647380Y-43537142D01*
X35695000Y-43394285D01*
X35742619Y-43346666D01*
X35647380Y-42489523D02*
X35647380Y-42680000D01*
X35695000Y-42775238D01*
X35742619Y-42822857D01*
X35885476Y-42918095D01*
X36075952Y-42965714D01*
X36456904Y-42965714D01*
X36552142Y-42918095D01*
X36599761Y-42870476D01*
X36647380Y-42775238D01*
X36647380Y-42584761D01*
X36599761Y-42489523D01*
X36552142Y-42441904D01*
X36456904Y-42394285D01*
X36218809Y-42394285D01*
X36123571Y-42441904D01*
X36075952Y-42489523D01*
X36028333Y-42584761D01*
X36028333Y-42775238D01*
X36075952Y-42870476D01*
X36123571Y-42918095D01*
X36218809Y-42965714D01*
X53697142Y-33186666D02*
X53744761Y-33234285D01*
X53792380Y-33377142D01*
X53792380Y-33472380D01*
X53744761Y-33615238D01*
X53649523Y-33710476D01*
X53554285Y-33758095D01*
X53363809Y-33805714D01*
X53220952Y-33805714D01*
X53030476Y-33758095D01*
X52935238Y-33710476D01*
X52840000Y-33615238D01*
X52792380Y-33472380D01*
X52792380Y-33377142D01*
X52840000Y-33234285D01*
X52887619Y-33186666D01*
X52792380Y-32853333D02*
X52792380Y-32186666D01*
X53792380Y-32615238D01*
X25233333Y-34012142D02*
X25185714Y-34059761D01*
X25042857Y-34107380D01*
X24947619Y-34107380D01*
X24804761Y-34059761D01*
X24709523Y-33964523D01*
X24661904Y-33869285D01*
X24614285Y-33678809D01*
X24614285Y-33535952D01*
X24661904Y-33345476D01*
X24709523Y-33250238D01*
X24804761Y-33155000D01*
X24947619Y-33107380D01*
X25042857Y-33107380D01*
X25185714Y-33155000D01*
X25233333Y-33202619D01*
X25804761Y-33535952D02*
X25709523Y-33488333D01*
X25661904Y-33440714D01*
X25614285Y-33345476D01*
X25614285Y-33297857D01*
X25661904Y-33202619D01*
X25709523Y-33155000D01*
X25804761Y-33107380D01*
X25995238Y-33107380D01*
X26090476Y-33155000D01*
X26138095Y-33202619D01*
X26185714Y-33297857D01*
X26185714Y-33345476D01*
X26138095Y-33440714D01*
X26090476Y-33488333D01*
X25995238Y-33535952D01*
X25804761Y-33535952D01*
X25709523Y-33583571D01*
X25661904Y-33631190D01*
X25614285Y-33726428D01*
X25614285Y-33916904D01*
X25661904Y-34012142D01*
X25709523Y-34059761D01*
X25804761Y-34107380D01*
X25995238Y-34107380D01*
X26090476Y-34059761D01*
X26138095Y-34012142D01*
X26185714Y-33916904D01*
X26185714Y-33726428D01*
X26138095Y-33631190D01*
X26090476Y-33583571D01*
X25995238Y-33535952D01*
X25233333Y-36552142D02*
X25185714Y-36599761D01*
X25042857Y-36647380D01*
X24947619Y-36647380D01*
X24804761Y-36599761D01*
X24709523Y-36504523D01*
X24661904Y-36409285D01*
X24614285Y-36218809D01*
X24614285Y-36075952D01*
X24661904Y-35885476D01*
X24709523Y-35790238D01*
X24804761Y-35695000D01*
X24947619Y-35647380D01*
X25042857Y-35647380D01*
X25185714Y-35695000D01*
X25233333Y-35742619D01*
X25709523Y-36647380D02*
X25900000Y-36647380D01*
X25995238Y-36599761D01*
X26042857Y-36552142D01*
X26138095Y-36409285D01*
X26185714Y-36218809D01*
X26185714Y-35837857D01*
X26138095Y-35742619D01*
X26090476Y-35695000D01*
X25995238Y-35647380D01*
X25804761Y-35647380D01*
X25709523Y-35695000D01*
X25661904Y-35742619D01*
X25614285Y-35837857D01*
X25614285Y-36075952D01*
X25661904Y-36171190D01*
X25709523Y-36218809D01*
X25804761Y-36266428D01*
X25995238Y-36266428D01*
X26090476Y-36218809D01*
X26138095Y-36171190D01*
X26185714Y-36075952D01*
X36187142Y-37822142D02*
X36139523Y-37869761D01*
X35996666Y-37917380D01*
X35901428Y-37917380D01*
X35758571Y-37869761D01*
X35663333Y-37774523D01*
X35615714Y-37679285D01*
X35568095Y-37488809D01*
X35568095Y-37345952D01*
X35615714Y-37155476D01*
X35663333Y-37060238D01*
X35758571Y-36965000D01*
X35901428Y-36917380D01*
X35996666Y-36917380D01*
X36139523Y-36965000D01*
X36187142Y-37012619D01*
X37139523Y-37917380D02*
X36568095Y-37917380D01*
X36853809Y-37917380D02*
X36853809Y-36917380D01*
X36758571Y-37060238D01*
X36663333Y-37155476D01*
X36568095Y-37203095D01*
X37758571Y-36917380D02*
X37853809Y-36917380D01*
X37949047Y-36965000D01*
X37996666Y-37012619D01*
X38044285Y-37107857D01*
X38091904Y-37298333D01*
X38091904Y-37536428D01*
X38044285Y-37726904D01*
X37996666Y-37822142D01*
X37949047Y-37869761D01*
X37853809Y-37917380D01*
X37758571Y-37917380D01*
X37663333Y-37869761D01*
X37615714Y-37822142D01*
X37568095Y-37726904D01*
X37520476Y-37536428D01*
X37520476Y-37298333D01*
X37568095Y-37107857D01*
X37615714Y-37012619D01*
X37663333Y-36965000D01*
X37758571Y-36917380D01*
X56507142Y-27127142D02*
X56459523Y-27174761D01*
X56316666Y-27222380D01*
X56221428Y-27222380D01*
X56078571Y-27174761D01*
X55983333Y-27079523D01*
X55935714Y-26984285D01*
X55888095Y-26793809D01*
X55888095Y-26650952D01*
X55935714Y-26460476D01*
X55983333Y-26365238D01*
X56078571Y-26270000D01*
X56221428Y-26222380D01*
X56316666Y-26222380D01*
X56459523Y-26270000D01*
X56507142Y-26317619D01*
X57459523Y-27222380D02*
X56888095Y-27222380D01*
X57173809Y-27222380D02*
X57173809Y-26222380D01*
X57078571Y-26365238D01*
X56983333Y-26460476D01*
X56888095Y-26508095D01*
X58411904Y-27222380D02*
X57840476Y-27222380D01*
X58126190Y-27222380D02*
X58126190Y-26222380D01*
X58030952Y-26365238D01*
X57935714Y-26460476D01*
X57840476Y-26508095D01*
X54967142Y-28582857D02*
X55014761Y-28630476D01*
X55062380Y-28773333D01*
X55062380Y-28868571D01*
X55014761Y-29011428D01*
X54919523Y-29106666D01*
X54824285Y-29154285D01*
X54633809Y-29201904D01*
X54490952Y-29201904D01*
X54300476Y-29154285D01*
X54205238Y-29106666D01*
X54110000Y-29011428D01*
X54062380Y-28868571D01*
X54062380Y-28773333D01*
X54110000Y-28630476D01*
X54157619Y-28582857D01*
X55062380Y-27630476D02*
X55062380Y-28201904D01*
X55062380Y-27916190D02*
X54062380Y-27916190D01*
X54205238Y-28011428D01*
X54300476Y-28106666D01*
X54348095Y-28201904D01*
X54157619Y-27249523D02*
X54110000Y-27201904D01*
X54062380Y-27106666D01*
X54062380Y-26868571D01*
X54110000Y-26773333D01*
X54157619Y-26725714D01*
X54252857Y-26678095D01*
X54348095Y-26678095D01*
X54490952Y-26725714D01*
X55062380Y-27297142D01*
X55062380Y-26678095D01*
X46902380Y-54078095D02*
X45902380Y-54078095D01*
X45902380Y-53840000D01*
X45950000Y-53697142D01*
X46045238Y-53601904D01*
X46140476Y-53554285D01*
X46330952Y-53506666D01*
X46473809Y-53506666D01*
X46664285Y-53554285D01*
X46759523Y-53601904D01*
X46854761Y-53697142D01*
X46902380Y-53840000D01*
X46902380Y-54078095D01*
X46902380Y-52554285D02*
X46902380Y-53125714D01*
X46902380Y-52840000D02*
X45902380Y-52840000D01*
X46045238Y-52935238D01*
X46140476Y-53030476D01*
X46188095Y-53125714D01*
X46902380Y-78843095D02*
X45902380Y-78843095D01*
X45902380Y-78605000D01*
X45950000Y-78462142D01*
X46045238Y-78366904D01*
X46140476Y-78319285D01*
X46330952Y-78271666D01*
X46473809Y-78271666D01*
X46664285Y-78319285D01*
X46759523Y-78366904D01*
X46854761Y-78462142D01*
X46902380Y-78605000D01*
X46902380Y-78843095D01*
X45997619Y-77890714D02*
X45950000Y-77843095D01*
X45902380Y-77747857D01*
X45902380Y-77509761D01*
X45950000Y-77414523D01*
X45997619Y-77366904D01*
X46092857Y-77319285D01*
X46188095Y-77319285D01*
X46330952Y-77366904D01*
X46902380Y-77938333D01*
X46902380Y-77319285D01*
X46902380Y-98528095D02*
X45902380Y-98528095D01*
X45902380Y-98290000D01*
X45950000Y-98147142D01*
X46045238Y-98051904D01*
X46140476Y-98004285D01*
X46330952Y-97956666D01*
X46473809Y-97956666D01*
X46664285Y-98004285D01*
X46759523Y-98051904D01*
X46854761Y-98147142D01*
X46902380Y-98290000D01*
X46902380Y-98528095D01*
X45902380Y-97623333D02*
X45902380Y-97004285D01*
X46283333Y-97337619D01*
X46283333Y-97194761D01*
X46330952Y-97099523D01*
X46378571Y-97051904D01*
X46473809Y-97004285D01*
X46711904Y-97004285D01*
X46807142Y-97051904D01*
X46854761Y-97099523D01*
X46902380Y-97194761D01*
X46902380Y-97480476D01*
X46854761Y-97575714D01*
X46807142Y-97623333D01*
X46902380Y-117578095D02*
X45902380Y-117578095D01*
X45902380Y-117340000D01*
X45950000Y-117197142D01*
X46045238Y-117101904D01*
X46140476Y-117054285D01*
X46330952Y-117006666D01*
X46473809Y-117006666D01*
X46664285Y-117054285D01*
X46759523Y-117101904D01*
X46854761Y-117197142D01*
X46902380Y-117340000D01*
X46902380Y-117578095D01*
X46235714Y-116149523D02*
X46902380Y-116149523D01*
X45854761Y-116387619D02*
X46569047Y-116625714D01*
X46569047Y-116006666D01*
X46902380Y-136628095D02*
X45902380Y-136628095D01*
X45902380Y-136390000D01*
X45950000Y-136247142D01*
X46045238Y-136151904D01*
X46140476Y-136104285D01*
X46330952Y-136056666D01*
X46473809Y-136056666D01*
X46664285Y-136104285D01*
X46759523Y-136151904D01*
X46854761Y-136247142D01*
X46902380Y-136390000D01*
X46902380Y-136628095D01*
X45902380Y-135151904D02*
X45902380Y-135628095D01*
X46378571Y-135675714D01*
X46330952Y-135628095D01*
X46283333Y-135532857D01*
X46283333Y-135294761D01*
X46330952Y-135199523D01*
X46378571Y-135151904D01*
X46473809Y-135104285D01*
X46711904Y-135104285D01*
X46807142Y-135151904D01*
X46854761Y-135199523D01*
X46902380Y-135294761D01*
X46902380Y-135532857D01*
X46854761Y-135628095D01*
X46807142Y-135675714D01*
X46902380Y-149328095D02*
X45902380Y-149328095D01*
X45902380Y-149090000D01*
X45950000Y-148947142D01*
X46045238Y-148851904D01*
X46140476Y-148804285D01*
X46330952Y-148756666D01*
X46473809Y-148756666D01*
X46664285Y-148804285D01*
X46759523Y-148851904D01*
X46854761Y-148947142D01*
X46902380Y-149090000D01*
X46902380Y-149328095D01*
X45902380Y-147899523D02*
X45902380Y-148090000D01*
X45950000Y-148185238D01*
X45997619Y-148232857D01*
X46140476Y-148328095D01*
X46330952Y-148375714D01*
X46711904Y-148375714D01*
X46807142Y-148328095D01*
X46854761Y-148280476D01*
X46902380Y-148185238D01*
X46902380Y-147994761D01*
X46854761Y-147899523D01*
X46807142Y-147851904D01*
X46711904Y-147804285D01*
X46473809Y-147804285D01*
X46378571Y-147851904D01*
X46330952Y-147899523D01*
X46283333Y-147994761D01*
X46283333Y-148185238D01*
X46330952Y-148280476D01*
X46378571Y-148328095D01*
X46473809Y-148375714D01*
X65952380Y-53443095D02*
X64952380Y-53443095D01*
X64952380Y-53205000D01*
X65000000Y-53062142D01*
X65095238Y-52966904D01*
X65190476Y-52919285D01*
X65380952Y-52871666D01*
X65523809Y-52871666D01*
X65714285Y-52919285D01*
X65809523Y-52966904D01*
X65904761Y-53062142D01*
X65952380Y-53205000D01*
X65952380Y-53443095D01*
X64952380Y-52538333D02*
X64952380Y-51871666D01*
X65952380Y-52300238D01*
X65952380Y-78843095D02*
X64952380Y-78843095D01*
X64952380Y-78605000D01*
X65000000Y-78462142D01*
X65095238Y-78366904D01*
X65190476Y-78319285D01*
X65380952Y-78271666D01*
X65523809Y-78271666D01*
X65714285Y-78319285D01*
X65809523Y-78366904D01*
X65904761Y-78462142D01*
X65952380Y-78605000D01*
X65952380Y-78843095D01*
X65380952Y-77700238D02*
X65333333Y-77795476D01*
X65285714Y-77843095D01*
X65190476Y-77890714D01*
X65142857Y-77890714D01*
X65047619Y-77843095D01*
X65000000Y-77795476D01*
X64952380Y-77700238D01*
X64952380Y-77509761D01*
X65000000Y-77414523D01*
X65047619Y-77366904D01*
X65142857Y-77319285D01*
X65190476Y-77319285D01*
X65285714Y-77366904D01*
X65333333Y-77414523D01*
X65380952Y-77509761D01*
X65380952Y-77700238D01*
X65428571Y-77795476D01*
X65476190Y-77843095D01*
X65571428Y-77890714D01*
X65761904Y-77890714D01*
X65857142Y-77843095D01*
X65904761Y-77795476D01*
X65952380Y-77700238D01*
X65952380Y-77509761D01*
X65904761Y-77414523D01*
X65857142Y-77366904D01*
X65761904Y-77319285D01*
X65571428Y-77319285D01*
X65476190Y-77366904D01*
X65428571Y-77414523D01*
X65380952Y-77509761D01*
X65952380Y-98528095D02*
X64952380Y-98528095D01*
X64952380Y-98290000D01*
X65000000Y-98147142D01*
X65095238Y-98051904D01*
X65190476Y-98004285D01*
X65380952Y-97956666D01*
X65523809Y-97956666D01*
X65714285Y-98004285D01*
X65809523Y-98051904D01*
X65904761Y-98147142D01*
X65952380Y-98290000D01*
X65952380Y-98528095D01*
X65952380Y-97480476D02*
X65952380Y-97290000D01*
X65904761Y-97194761D01*
X65857142Y-97147142D01*
X65714285Y-97051904D01*
X65523809Y-97004285D01*
X65142857Y-97004285D01*
X65047619Y-97051904D01*
X65000000Y-97099523D01*
X64952380Y-97194761D01*
X64952380Y-97385238D01*
X65000000Y-97480476D01*
X65047619Y-97528095D01*
X65142857Y-97575714D01*
X65380952Y-97575714D01*
X65476190Y-97528095D01*
X65523809Y-97480476D01*
X65571428Y-97385238D01*
X65571428Y-97194761D01*
X65523809Y-97099523D01*
X65476190Y-97051904D01*
X65380952Y-97004285D01*
X65952380Y-118054285D02*
X64952380Y-118054285D01*
X64952380Y-117816190D01*
X65000000Y-117673333D01*
X65095238Y-117578095D01*
X65190476Y-117530476D01*
X65380952Y-117482857D01*
X65523809Y-117482857D01*
X65714285Y-117530476D01*
X65809523Y-117578095D01*
X65904761Y-117673333D01*
X65952380Y-117816190D01*
X65952380Y-118054285D01*
X65952380Y-116530476D02*
X65952380Y-117101904D01*
X65952380Y-116816190D02*
X64952380Y-116816190D01*
X65095238Y-116911428D01*
X65190476Y-117006666D01*
X65238095Y-117101904D01*
X64952380Y-115911428D02*
X64952380Y-115816190D01*
X65000000Y-115720952D01*
X65047619Y-115673333D01*
X65142857Y-115625714D01*
X65333333Y-115578095D01*
X65571428Y-115578095D01*
X65761904Y-115625714D01*
X65857142Y-115673333D01*
X65904761Y-115720952D01*
X65952380Y-115816190D01*
X65952380Y-115911428D01*
X65904761Y-116006666D01*
X65857142Y-116054285D01*
X65761904Y-116101904D01*
X65571428Y-116149523D01*
X65333333Y-116149523D01*
X65142857Y-116101904D01*
X65047619Y-116054285D01*
X65000000Y-116006666D01*
X64952380Y-115911428D01*
X65952380Y-137104285D02*
X64952380Y-137104285D01*
X64952380Y-136866190D01*
X65000000Y-136723333D01*
X65095238Y-136628095D01*
X65190476Y-136580476D01*
X65380952Y-136532857D01*
X65523809Y-136532857D01*
X65714285Y-136580476D01*
X65809523Y-136628095D01*
X65904761Y-136723333D01*
X65952380Y-136866190D01*
X65952380Y-137104285D01*
X65952380Y-135580476D02*
X65952380Y-136151904D01*
X65952380Y-135866190D02*
X64952380Y-135866190D01*
X65095238Y-135961428D01*
X65190476Y-136056666D01*
X65238095Y-136151904D01*
X65952380Y-134628095D02*
X65952380Y-135199523D01*
X65952380Y-134913809D02*
X64952380Y-134913809D01*
X65095238Y-135009047D01*
X65190476Y-135104285D01*
X65238095Y-135199523D01*
X85002380Y-53919285D02*
X84002380Y-53919285D01*
X84002380Y-53681190D01*
X84050000Y-53538333D01*
X84145238Y-53443095D01*
X84240476Y-53395476D01*
X84430952Y-53347857D01*
X84573809Y-53347857D01*
X84764285Y-53395476D01*
X84859523Y-53443095D01*
X84954761Y-53538333D01*
X85002380Y-53681190D01*
X85002380Y-53919285D01*
X85002380Y-52395476D02*
X85002380Y-52966904D01*
X85002380Y-52681190D02*
X84002380Y-52681190D01*
X84145238Y-52776428D01*
X84240476Y-52871666D01*
X84288095Y-52966904D01*
X84097619Y-52014523D02*
X84050000Y-51966904D01*
X84002380Y-51871666D01*
X84002380Y-51633571D01*
X84050000Y-51538333D01*
X84097619Y-51490714D01*
X84192857Y-51443095D01*
X84288095Y-51443095D01*
X84430952Y-51490714D01*
X85002380Y-52062142D01*
X85002380Y-51443095D01*
X85002380Y-79319285D02*
X84002380Y-79319285D01*
X84002380Y-79081190D01*
X84050000Y-78938333D01*
X84145238Y-78843095D01*
X84240476Y-78795476D01*
X84430952Y-78747857D01*
X84573809Y-78747857D01*
X84764285Y-78795476D01*
X84859523Y-78843095D01*
X84954761Y-78938333D01*
X85002380Y-79081190D01*
X85002380Y-79319285D01*
X85002380Y-77795476D02*
X85002380Y-78366904D01*
X85002380Y-78081190D02*
X84002380Y-78081190D01*
X84145238Y-78176428D01*
X84240476Y-78271666D01*
X84288095Y-78366904D01*
X84002380Y-77462142D02*
X84002380Y-76843095D01*
X84383333Y-77176428D01*
X84383333Y-77033571D01*
X84430952Y-76938333D01*
X84478571Y-76890714D01*
X84573809Y-76843095D01*
X84811904Y-76843095D01*
X84907142Y-76890714D01*
X84954761Y-76938333D01*
X85002380Y-77033571D01*
X85002380Y-77319285D01*
X84954761Y-77414523D01*
X84907142Y-77462142D01*
X85002380Y-96464285D02*
X84002380Y-96464285D01*
X84002380Y-96226190D01*
X84050000Y-96083333D01*
X84145238Y-95988095D01*
X84240476Y-95940476D01*
X84430952Y-95892857D01*
X84573809Y-95892857D01*
X84764285Y-95940476D01*
X84859523Y-95988095D01*
X84954761Y-96083333D01*
X85002380Y-96226190D01*
X85002380Y-96464285D01*
X85002380Y-94940476D02*
X85002380Y-95511904D01*
X85002380Y-95226190D02*
X84002380Y-95226190D01*
X84145238Y-95321428D01*
X84240476Y-95416666D01*
X84288095Y-95511904D01*
X84335714Y-94083333D02*
X85002380Y-94083333D01*
X83954761Y-94321428D02*
X84669047Y-94559523D01*
X84669047Y-93940476D01*
X85002380Y-118054285D02*
X84002380Y-118054285D01*
X84002380Y-117816190D01*
X84050000Y-117673333D01*
X84145238Y-117578095D01*
X84240476Y-117530476D01*
X84430952Y-117482857D01*
X84573809Y-117482857D01*
X84764285Y-117530476D01*
X84859523Y-117578095D01*
X84954761Y-117673333D01*
X85002380Y-117816190D01*
X85002380Y-118054285D01*
X85002380Y-116530476D02*
X85002380Y-117101904D01*
X85002380Y-116816190D02*
X84002380Y-116816190D01*
X84145238Y-116911428D01*
X84240476Y-117006666D01*
X84288095Y-117101904D01*
X84002380Y-115625714D02*
X84002380Y-116101904D01*
X84478571Y-116149523D01*
X84430952Y-116101904D01*
X84383333Y-116006666D01*
X84383333Y-115768571D01*
X84430952Y-115673333D01*
X84478571Y-115625714D01*
X84573809Y-115578095D01*
X84811904Y-115578095D01*
X84907142Y-115625714D01*
X84954761Y-115673333D01*
X85002380Y-115768571D01*
X85002380Y-116006666D01*
X84954761Y-116101904D01*
X84907142Y-116149523D01*
X85002380Y-134564285D02*
X84002380Y-134564285D01*
X84002380Y-134326190D01*
X84050000Y-134183333D01*
X84145238Y-134088095D01*
X84240476Y-134040476D01*
X84430952Y-133992857D01*
X84573809Y-133992857D01*
X84764285Y-134040476D01*
X84859523Y-134088095D01*
X84954761Y-134183333D01*
X85002380Y-134326190D01*
X85002380Y-134564285D01*
X85002380Y-133040476D02*
X85002380Y-133611904D01*
X85002380Y-133326190D02*
X84002380Y-133326190D01*
X84145238Y-133421428D01*
X84240476Y-133516666D01*
X84288095Y-133611904D01*
X84002380Y-132183333D02*
X84002380Y-132373809D01*
X84050000Y-132469047D01*
X84097619Y-132516666D01*
X84240476Y-132611904D01*
X84430952Y-132659523D01*
X84811904Y-132659523D01*
X84907142Y-132611904D01*
X84954761Y-132564285D01*
X85002380Y-132469047D01*
X85002380Y-132278571D01*
X84954761Y-132183333D01*
X84907142Y-132135714D01*
X84811904Y-132088095D01*
X84573809Y-132088095D01*
X84478571Y-132135714D01*
X84430952Y-132183333D01*
X84383333Y-132278571D01*
X84383333Y-132469047D01*
X84430952Y-132564285D01*
X84478571Y-132611904D01*
X84573809Y-132659523D01*
X85002380Y-156154285D02*
X84002380Y-156154285D01*
X84002380Y-155916190D01*
X84050000Y-155773333D01*
X84145238Y-155678095D01*
X84240476Y-155630476D01*
X84430952Y-155582857D01*
X84573809Y-155582857D01*
X84764285Y-155630476D01*
X84859523Y-155678095D01*
X84954761Y-155773333D01*
X85002380Y-155916190D01*
X85002380Y-156154285D01*
X85002380Y-154630476D02*
X85002380Y-155201904D01*
X85002380Y-154916190D02*
X84002380Y-154916190D01*
X84145238Y-155011428D01*
X84240476Y-155106666D01*
X84288095Y-155201904D01*
X84002380Y-154297142D02*
X84002380Y-153630476D01*
X85002380Y-154059047D01*
X104052380Y-53919285D02*
X103052380Y-53919285D01*
X103052380Y-53681190D01*
X103100000Y-53538333D01*
X103195238Y-53443095D01*
X103290476Y-53395476D01*
X103480952Y-53347857D01*
X103623809Y-53347857D01*
X103814285Y-53395476D01*
X103909523Y-53443095D01*
X104004761Y-53538333D01*
X104052380Y-53681190D01*
X104052380Y-53919285D01*
X104052380Y-52395476D02*
X104052380Y-52966904D01*
X104052380Y-52681190D02*
X103052380Y-52681190D01*
X103195238Y-52776428D01*
X103290476Y-52871666D01*
X103338095Y-52966904D01*
X103480952Y-51824047D02*
X103433333Y-51919285D01*
X103385714Y-51966904D01*
X103290476Y-52014523D01*
X103242857Y-52014523D01*
X103147619Y-51966904D01*
X103100000Y-51919285D01*
X103052380Y-51824047D01*
X103052380Y-51633571D01*
X103100000Y-51538333D01*
X103147619Y-51490714D01*
X103242857Y-51443095D01*
X103290476Y-51443095D01*
X103385714Y-51490714D01*
X103433333Y-51538333D01*
X103480952Y-51633571D01*
X103480952Y-51824047D01*
X103528571Y-51919285D01*
X103576190Y-51966904D01*
X103671428Y-52014523D01*
X103861904Y-52014523D01*
X103957142Y-51966904D01*
X104004761Y-51919285D01*
X104052380Y-51824047D01*
X104052380Y-51633571D01*
X104004761Y-51538333D01*
X103957142Y-51490714D01*
X103861904Y-51443095D01*
X103671428Y-51443095D01*
X103576190Y-51490714D01*
X103528571Y-51538333D01*
X103480952Y-51633571D01*
X104052380Y-79319285D02*
X103052380Y-79319285D01*
X103052380Y-79081190D01*
X103100000Y-78938333D01*
X103195238Y-78843095D01*
X103290476Y-78795476D01*
X103480952Y-78747857D01*
X103623809Y-78747857D01*
X103814285Y-78795476D01*
X103909523Y-78843095D01*
X104004761Y-78938333D01*
X104052380Y-79081190D01*
X104052380Y-79319285D01*
X104052380Y-77795476D02*
X104052380Y-78366904D01*
X104052380Y-78081190D02*
X103052380Y-78081190D01*
X103195238Y-78176428D01*
X103290476Y-78271666D01*
X103338095Y-78366904D01*
X104052380Y-77319285D02*
X104052380Y-77128809D01*
X104004761Y-77033571D01*
X103957142Y-76985952D01*
X103814285Y-76890714D01*
X103623809Y-76843095D01*
X103242857Y-76843095D01*
X103147619Y-76890714D01*
X103100000Y-76938333D01*
X103052380Y-77033571D01*
X103052380Y-77224047D01*
X103100000Y-77319285D01*
X103147619Y-77366904D01*
X103242857Y-77414523D01*
X103480952Y-77414523D01*
X103576190Y-77366904D01*
X103623809Y-77319285D01*
X103671428Y-77224047D01*
X103671428Y-77033571D01*
X103623809Y-76938333D01*
X103576190Y-76890714D01*
X103480952Y-76843095D01*
X104052380Y-107894285D02*
X103052380Y-107894285D01*
X103052380Y-107656190D01*
X103100000Y-107513333D01*
X103195238Y-107418095D01*
X103290476Y-107370476D01*
X103480952Y-107322857D01*
X103623809Y-107322857D01*
X103814285Y-107370476D01*
X103909523Y-107418095D01*
X104004761Y-107513333D01*
X104052380Y-107656190D01*
X104052380Y-107894285D01*
X103147619Y-106941904D02*
X103100000Y-106894285D01*
X103052380Y-106799047D01*
X103052380Y-106560952D01*
X103100000Y-106465714D01*
X103147619Y-106418095D01*
X103242857Y-106370476D01*
X103338095Y-106370476D01*
X103480952Y-106418095D01*
X104052380Y-106989523D01*
X104052380Y-106370476D01*
X103052380Y-105751428D02*
X103052380Y-105656190D01*
X103100000Y-105560952D01*
X103147619Y-105513333D01*
X103242857Y-105465714D01*
X103433333Y-105418095D01*
X103671428Y-105418095D01*
X103861904Y-105465714D01*
X103957142Y-105513333D01*
X104004761Y-105560952D01*
X104052380Y-105656190D01*
X104052380Y-105751428D01*
X104004761Y-105846666D01*
X103957142Y-105894285D01*
X103861904Y-105941904D01*
X103671428Y-105989523D01*
X103433333Y-105989523D01*
X103242857Y-105941904D01*
X103147619Y-105894285D01*
X103100000Y-105846666D01*
X103052380Y-105751428D01*
X104052380Y-147264285D02*
X103052380Y-147264285D01*
X103052380Y-147026190D01*
X103100000Y-146883333D01*
X103195238Y-146788095D01*
X103290476Y-146740476D01*
X103480952Y-146692857D01*
X103623809Y-146692857D01*
X103814285Y-146740476D01*
X103909523Y-146788095D01*
X104004761Y-146883333D01*
X104052380Y-147026190D01*
X104052380Y-147264285D01*
X103147619Y-146311904D02*
X103100000Y-146264285D01*
X103052380Y-146169047D01*
X103052380Y-145930952D01*
X103100000Y-145835714D01*
X103147619Y-145788095D01*
X103242857Y-145740476D01*
X103338095Y-145740476D01*
X103480952Y-145788095D01*
X104052380Y-146359523D01*
X104052380Y-145740476D01*
X104052380Y-144788095D02*
X104052380Y-145359523D01*
X104052380Y-145073809D02*
X103052380Y-145073809D01*
X103195238Y-145169047D01*
X103290476Y-145264285D01*
X103338095Y-145359523D01*
X48561666Y-31837380D02*
X48561666Y-32551666D01*
X48514047Y-32694523D01*
X48418809Y-32789761D01*
X48275952Y-32837380D01*
X48180714Y-32837380D01*
X49561666Y-32837380D02*
X48990238Y-32837380D01*
X49275952Y-32837380D02*
X49275952Y-31837380D01*
X49180714Y-31980238D01*
X49085476Y-32075476D01*
X48990238Y-32123095D01*
X63166616Y-24217298D02*
X63166616Y-24931691D01*
X63118990Y-25074570D01*
X63023738Y-25169822D01*
X62880859Y-25217448D01*
X62785607Y-25217448D01*
X63595252Y-24312551D02*
X63642878Y-24264925D01*
X63738130Y-24217298D01*
X63976261Y-24217298D01*
X64071514Y-24264925D01*
X64119140Y-24312551D01*
X64166766Y-24407803D01*
X64166766Y-24503055D01*
X64119140Y-24645934D01*
X63547626Y-25217448D01*
X64166766Y-25217448D01*
X44283333Y-30297380D02*
X43950000Y-29821190D01*
X43711904Y-30297380D02*
X43711904Y-29297380D01*
X44092857Y-29297380D01*
X44188095Y-29345000D01*
X44235714Y-29392619D01*
X44283333Y-29487857D01*
X44283333Y-29630714D01*
X44235714Y-29725952D01*
X44188095Y-29773571D01*
X44092857Y-29821190D01*
X43711904Y-29821190D01*
X45235714Y-30297380D02*
X44664285Y-30297380D01*
X44950000Y-30297380D02*
X44950000Y-29297380D01*
X44854761Y-29440238D01*
X44759523Y-29535476D01*
X44664285Y-29583095D01*
X71672380Y-21756666D02*
X71196190Y-22090000D01*
X71672380Y-22328095D02*
X70672380Y-22328095D01*
X70672380Y-21947142D01*
X70720000Y-21851904D01*
X70767619Y-21804285D01*
X70862857Y-21756666D01*
X71005714Y-21756666D01*
X71100952Y-21804285D01*
X71148571Y-21851904D01*
X71196190Y-21947142D01*
X71196190Y-22328095D01*
X70767619Y-21375714D02*
X70720000Y-21328095D01*
X70672380Y-21232857D01*
X70672380Y-20994761D01*
X70720000Y-20899523D01*
X70767619Y-20851904D01*
X70862857Y-20804285D01*
X70958095Y-20804285D01*
X71100952Y-20851904D01*
X71672380Y-21423333D01*
X71672380Y-20804285D01*
X55162380Y-21756666D02*
X54686190Y-22090000D01*
X55162380Y-22328095D02*
X54162380Y-22328095D01*
X54162380Y-21947142D01*
X54210000Y-21851904D01*
X54257619Y-21804285D01*
X54352857Y-21756666D01*
X54495714Y-21756666D01*
X54590952Y-21804285D01*
X54638571Y-21851904D01*
X54686190Y-21947142D01*
X54686190Y-22328095D01*
X54162380Y-21423333D02*
X54162380Y-20804285D01*
X54543333Y-21137619D01*
X54543333Y-20994761D01*
X54590952Y-20899523D01*
X54638571Y-20851904D01*
X54733809Y-20804285D01*
X54971904Y-20804285D01*
X55067142Y-20851904D01*
X55114761Y-20899523D01*
X55162380Y-20994761D01*
X55162380Y-21280476D01*
X55114761Y-21375714D01*
X55067142Y-21423333D01*
X65278095Y-26122380D02*
X65278095Y-26931904D01*
X65325714Y-27027142D01*
X65373333Y-27074761D01*
X65468571Y-27122380D01*
X65659047Y-27122380D01*
X65754285Y-27074761D01*
X65801904Y-27027142D01*
X65849523Y-26931904D01*
X65849523Y-26122380D01*
X66849523Y-27122380D02*
X66278095Y-27122380D01*
X66563809Y-27122380D02*
X66563809Y-26122380D01*
X66468571Y-26265238D01*
X66373333Y-26360476D01*
X66278095Y-26408095D01*
X43688095Y-32337380D02*
X43688095Y-33146904D01*
X43735714Y-33242142D01*
X43783333Y-33289761D01*
X43878571Y-33337380D01*
X44069047Y-33337380D01*
X44164285Y-33289761D01*
X44211904Y-33242142D01*
X44259523Y-33146904D01*
X44259523Y-32337380D01*
X44688095Y-32432619D02*
X44735714Y-32385000D01*
X44830952Y-32337380D01*
X45069047Y-32337380D01*
X45164285Y-32385000D01*
X45211904Y-32432619D01*
X45259523Y-32527857D01*
X45259523Y-32623095D01*
X45211904Y-32765952D01*
X44640476Y-33337380D01*
X45259523Y-33337380D01*
X59142380Y-31241904D02*
X59951904Y-31241904D01*
X60047142Y-31194285D01*
X60094761Y-31146666D01*
X60142380Y-31051428D01*
X60142380Y-30860952D01*
X60094761Y-30765714D01*
X60047142Y-30718095D01*
X59951904Y-30670476D01*
X59142380Y-30670476D01*
X59142380Y-30289523D02*
X59142380Y-29670476D01*
X59523333Y-30003809D01*
X59523333Y-29860952D01*
X59570952Y-29765714D01*
X59618571Y-29718095D01*
X59713809Y-29670476D01*
X59951904Y-29670476D01*
X60047142Y-29718095D01*
X60094761Y-29765714D01*
X60142380Y-29860952D01*
X60142380Y-30146666D01*
X60094761Y-30241904D01*
X60047142Y-30289523D01*
X32543809Y-31091190D02*
X32543809Y-31567380D01*
X32210476Y-30567380D02*
X32543809Y-31091190D01*
X32877142Y-30567380D01*
X33734285Y-31567380D02*
X33162857Y-31567380D01*
X33448571Y-31567380D02*
X33448571Y-30567380D01*
X33353333Y-30710238D01*
X33258095Y-30805476D01*
X33162857Y-30853095D01*
M02*
