M48
; DRILL file {KiCad (5.1.5-0-10_14)} date Monday, January 27, 2020 at 05:13:06 PM
; FORMAT={-:-/ absolute / inch / decimal}
; #@! TF.CreationDate,2020-01-27T17:13:06-08:00
; #@! TF.GenerationSoftware,Kicad,Pcbnew,(5.1.5-0-10_14)
; #@! TF.FileFunction,NonPlated,1,2,NPTH
FMAT,2
INCH
T1C0.0669
T2C0.1201
T3C0.1575
%
G90
G05
T1
X2.675Y-2.325
X3.075Y-2.325
X1.175Y-5.575
X1.575Y-5.575
X3.425Y-5.95
X3.825Y-5.95
X1.925Y-5.575
X2.325Y-5.575
X1.175Y-4.825
X1.575Y-4.825
X3.425Y-4.45
X3.825Y-4.45
X1.925Y-4.825
X2.325Y-4.825
X1.925Y-4.075
X2.325Y-4.075
X1.175Y-3.325
X1.575Y-3.325
X1.925Y-3.325
X2.325Y-3.325
X3.425Y-3.325
X3.825Y-3.325
X3.425Y-2.325
X3.825Y-2.325
X1.175Y-2.325
X1.575Y-2.325
X2.675Y-6.325
X3.075Y-6.325
X1.55Y-6.325
X1.95Y-6.325
X2.675Y-5.575
X3.075Y-5.575
X1.925Y-2.325
X2.325Y-2.325
X2.675Y-4.825
X3.075Y-4.825
X1.175Y-4.075
X1.575Y-4.075
X2.675Y-4.075
X3.075Y-4.075
X2.675Y-3.325
X3.075Y-3.325
T2
X3.3494Y-5.4815
X3.3494Y-6.4185
X3.3494Y-3.9815
X3.3494Y-4.9185
X1.2815Y-6.0494
X2.2185Y-6.0494
T3
X2.125Y-2.325
X2.875Y-4.825
X1.375Y-4.075
X2.875Y-4.075
X2.875Y-3.325
X2.875Y-2.325
X1.375Y-5.575
X3.625Y-5.95
X3.9494Y-5.4815
X3.9494Y-6.4185
X2.125Y-5.575
X1.375Y-4.825
X3.625Y-4.45
X3.9494Y-3.9815
X3.9494Y-4.9185
X2.125Y-4.825
X2.125Y-4.075
X1.375Y-3.325
X2.125Y-3.325
X3.625Y-3.325
X3.625Y-2.325
X1.375Y-2.325
X2.875Y-6.325
X1.2815Y-6.6494
X1.75Y-6.325
X2.2185Y-6.6494
X2.875Y-5.575
T0
M30
