M48
; DRILL file {KiCad (5.1.5-0-10_14)} date Monday, January 27, 2020 at 05:13:06 PM
; FORMAT={-:-/ absolute / inch / decimal}
; #@! TF.CreationDate,2020-01-27T17:13:06-08:00
; #@! TF.GenerationSoftware,Kicad,Pcbnew,(5.1.5-0-10_14)
; #@! TF.FileFunction,Plated,1,2,PTH
FMAT,2
INCH
T1C0.0118
T2C0.0157
T3C0.0236
T4C0.0256
T5C0.0591
T6C0.1260
%
G90
G05
T1
X1.075Y-1.375
X1.375Y-1.525
X1.5Y-1.325
X1.675Y-1.225
X1.7Y-1.275
X1.8471Y-1.7529
X1.85Y-1.925
X1.9Y-1.975
X1.95Y-1.775
X2.0Y-1.45
X2.05Y-1.375
X2.2Y-1.1
X2.2Y-1.85
X2.25Y-1.85
X2.25Y-1.9
X2.325Y-1.925
X2.35Y-1.2
X2.45Y-1.125
X2.5216Y-1.1034
X2.55Y-1.15
X2.65Y-1.15
T2
X2.3829Y-0.8553
X2.3829Y-0.9085
X2.4163Y-0.8553
X2.4163Y-0.9085
X2.4498Y-0.8553
X2.4498Y-0.9085
X2.4833Y-0.8553
X2.4833Y-0.9085
X2.5167Y-0.8553
X2.5167Y-0.9085
X2.5502Y-0.8553
X2.5502Y-0.9085
X2.5837Y-0.8553
X2.5837Y-0.9085
X2.6171Y-0.8553
X2.6171Y-0.9085
T4
X1.875Y-1.2
X1.925Y-1.2
X1.975Y-1.2
T5
X2.725Y-3.975
X2.975Y-3.875
X2.725Y-3.225
X2.975Y-3.125
X2.725Y-2.225
X2.975Y-2.125
X1.225Y-5.475
X1.475Y-5.375
X3.475Y-5.85
X3.725Y-5.75
X1.975Y-5.475
X2.225Y-5.375
X1.225Y-4.725
X1.475Y-4.625
X3.475Y-4.35
X3.725Y-4.25
X1.975Y-4.725
X2.225Y-4.625
X1.975Y-3.975
X2.225Y-3.875
X1.225Y-3.225
X1.475Y-3.125
X1.975Y-3.225
X2.225Y-3.125
X3.475Y-3.225
X3.725Y-3.125
X3.475Y-2.225
X3.725Y-2.125
X1.225Y-2.225
X1.475Y-2.125
X2.725Y-6.225
X2.975Y-6.125
X1.6Y-6.225
X1.85Y-6.125
X2.725Y-5.475
X2.975Y-5.375
X1.975Y-2.225
X2.225Y-2.125
X2.725Y-4.725
X2.975Y-4.625
X1.225Y-3.975
X1.475Y-3.875
T6
X0.85Y-0.85
X4.15Y-6.85
X4.15Y-0.85
X0.85Y-6.85
T3
G00X2.3297Y-0.7526
M15
G01X2.3297Y-0.7211
M16
G05
G00X2.3297Y-0.8994
M15
G01X2.3297Y-0.8404
M16
G05
G00X2.6703Y-0.7526
M15
G01X2.6703Y-0.7211
M16
G05
G00X2.6703Y-0.8994
M15
G01X2.6703Y-0.8404
M16
G05
T0
M30
